<svg width="174" height="56" viewBox="0 0 174 56" fill="none" xmlns="http://www.w3.org/2000/svg">
<path d="M25.2076 12.9995H24.8032V20.7419H25.2076V12.9995Z" fill="#0C0421"/>
<path d="M25.2076 7.38861H24.8032V13.5303H25.2076V7.38861Z" fill="#0C0421"/>
<path d="M25.0054 7.89406C25.4475 7.89406 25.8058 7.53572 25.8058 7.0937C25.8058 6.65167 25.4475 6.29333 25.0054 6.29333C24.5634 6.29333 24.2051 6.65167 24.2051 7.0937C24.2051 7.53572 24.5634 7.89406 25.0054 7.89406Z" fill="#0C0421"/>
<path d="M27.8988 8.04648L24.8242 13.3632L25.1743 13.5657L28.2489 8.24892L27.8988 8.04648Z" fill="#0C0421"/>
<path d="M28.2066 8.69435C28.6486 8.69435 29.007 8.33602 29.007 7.89399C29.007 7.45196 28.6486 7.09363 28.2066 7.09363C27.7646 7.09363 27.4062 7.45196 27.4062 7.89399C27.4062 8.33602 27.7646 8.69435 28.2066 8.69435Z" fill="#0C0421"/>
<path d="M22.1202 8.04573L21.77 8.24792L24.8409 13.5668L25.1911 13.3646L22.1202 8.04573Z" fill="#0C0421"/>
<path d="M21.7955 8.69435C22.2375 8.69435 22.5958 8.33602 22.5958 7.89399C22.5958 7.45196 22.2375 7.09363 21.7955 7.09363C21.3535 7.09363 20.9951 7.45196 20.9951 7.89399C20.9951 8.33602 21.3535 8.69435 21.7955 8.69435Z" fill="#0C0421"/>
<path d="M25.2076 41.5598H24.8032V49.3022H25.2076V41.5598Z" fill="#0C0421"/>
<path d="M25.2076 48.7714H24.8032V54.9131H25.2076V48.7714Z" fill="#0C0421"/>
<path d="M25.0054 56C25.4475 56 25.8058 55.6417 25.8058 55.1997C25.8058 54.7576 25.4475 54.3993 25.0054 54.3993C24.5634 54.3993 24.2051 54.7576 24.2051 55.1997C24.2051 55.6417 24.5634 56 25.0054 56Z" fill="#0C0421"/>
<path d="M24.8461 48.7357L21.7715 54.0524L22.1216 54.2549L25.1961 48.9381L24.8461 48.7357Z" fill="#0C0421"/>
<path d="M21.7955 55.1996C22.2375 55.1996 22.5958 54.8413 22.5958 54.3992C22.5958 53.9572 22.2375 53.5989 21.7955 53.5989C21.3535 53.5989 20.9951 53.9572 20.9951 54.3992C20.9951 54.8413 21.3535 55.1996 21.7955 55.1996Z" fill="#0C0421"/>
<path d="M25.17 48.7297L24.8198 48.9319L27.8907 54.2508L28.2409 54.0486L25.17 48.7297Z" fill="#0C0421"/>
<path d="M28.2066 55.1996C28.6486 55.1996 29.007 54.8413 29.007 54.3992C29.007 53.9572 28.6486 53.5989 28.2066 53.5989C27.7646 53.5989 27.4062 53.9572 27.4062 54.3992C27.4062 54.8413 27.7646 55.1996 28.2066 55.1996Z" fill="#0C0421"/>
<path d="M18.585 14.5639L18.2114 14.7186L21.1743 21.8717L21.5479 21.717L18.585 14.5639Z" fill="#0C0421"/>
<path d="M16.4327 9.37625L16.0591 9.53107L18.4104 15.2049L18.784 15.05L16.4327 9.37625Z" fill="#0C0421"/>
<path d="M16.1343 9.99184C16.5764 9.99184 16.9347 9.6335 16.9347 9.19147C16.9347 8.74945 16.5764 8.39111 16.1343 8.39111C15.6923 8.39111 15.334 8.74945 15.334 9.19147C15.334 9.6335 15.6923 9.99184 16.1343 9.99184Z" fill="#0C0421"/>
<path d="M18.7627 15.0973L18.3667 15.0468L19.1671 8.96405L19.563 9.0146L18.7627 15.0973Z" fill="#0C0421"/>
<path d="M19.4029 9.50325C19.8449 9.50325 20.2033 9.14492 20.2033 8.70289C20.2033 8.26086 19.8449 7.90253 19.4029 7.90253C18.9609 7.90253 18.6025 8.26086 18.6025 8.70289C18.6025 9.14492 18.9609 9.50325 19.4029 9.50325Z" fill="#0C0421"/>
<path d="M13.8443 11.1721L13.5981 11.4929L18.4707 15.2318L18.7169 14.9109L13.8443 11.1721Z" fill="#0C0421"/>
<path d="M13.4805 11.955C13.9226 11.955 14.2809 11.5966 14.2809 11.1546C14.2809 10.7126 13.9226 10.3542 13.4805 10.3542C13.0385 10.3542 12.6802 10.7126 12.6802 11.1546C12.6802 11.5966 13.0385 11.955 13.4805 11.955Z" fill="#0C0421"/>
<path d="M12.7532 18.6177L12.4673 18.9036L17.942 24.3784L18.228 24.0924L12.7532 18.6177Z" fill="#0C0421"/>
<path d="M8.78741 14.6511L8.50146 14.937L12.8443 19.2799L13.1303 18.9939L8.78741 14.6511Z" fill="#0C0421"/>
<path d="M8.44245 15.3838C8.88448 15.3838 9.24281 15.0255 9.24281 14.5834C9.24281 14.1414 8.88448 13.7831 8.44245 13.7831C8.00042 13.7831 7.64209 14.1414 7.64209 14.5834C7.64209 15.0255 8.00042 15.3838 8.44245 15.3838Z" fill="#0C0421"/>
<path d="M11.5513 13.1091L11.1606 13.2138L12.7502 19.1463L13.1409 19.0416L11.5513 13.1091Z" fill="#0C0421"/>
<path d="M11.273 13.6904C11.715 13.6904 12.0734 13.332 12.0734 12.89C12.0734 12.448 11.715 12.0897 11.273 12.0897C10.831 12.0897 10.4727 12.448 10.4727 12.89C10.4727 13.332 10.831 13.6904 11.273 13.6904Z" fill="#0C0421"/>
<path d="M7.0813 17.2997L6.97656 17.6903L12.9087 19.2809L13.0135 18.8903L7.0813 17.2997Z" fill="#0C0421"/>
<path d="M6.7403 18.223C7.18233 18.223 7.54066 17.8647 7.54066 17.4227C7.54066 16.9806 7.18233 16.6223 6.7403 16.6223C6.29828 16.6223 5.93994 16.9806 5.93994 17.4227C5.93994 17.8647 6.29828 18.223 6.7403 18.223Z" fill="#0C0421"/>
<path d="M9.37399 24.353L9.21924 24.7266L16.3723 27.6895L16.5271 27.3159L9.37399 24.353Z" fill="#0C0421"/>
<path d="M4.19186 22.2002L4.03711 22.5738L9.71132 24.9241L9.86607 24.5505L4.19186 22.2002Z" fill="#0C0421"/>
<path d="M3.84235 23.0841C4.28438 23.0841 4.64272 22.7258 4.64272 22.2838C4.64272 21.8417 4.28438 21.4834 3.84235 21.4834C3.40033 21.4834 3.04199 21.8417 3.04199 22.2838C3.04199 22.7258 3.40033 23.0841 3.84235 23.0841Z" fill="#0C0421"/>
<path d="M6.15237 19.7297L5.83154 19.9758L9.57039 24.8484L9.89121 24.6022L6.15237 19.7297Z" fill="#0C0421"/>
<path d="M5.81403 20.4218C6.25606 20.4218 6.61439 20.0634 6.61439 19.6214C6.61439 19.1794 6.25606 18.821 5.81403 18.821C5.37201 18.821 5.01367 19.1794 5.01367 19.6214C5.01367 20.0634 5.37201 20.4218 5.81403 20.4218Z" fill="#0C0421"/>
<path d="M3.67408 25.7042L3.62354 25.3082L9.70628 24.5079L9.75683 24.9038L3.67408 25.7042Z" fill="#0C0421"/>
<path d="M3.36237 26.3445C3.8044 26.3445 4.16273 25.9862 4.16273 25.5441C4.16273 25.1021 3.8044 24.7438 3.36237 24.7438C2.92035 24.7438 2.56201 25.1021 2.56201 25.5441C2.56201 25.9862 2.92035 26.3445 3.36237 26.3445Z" fill="#0C0421"/>
<path d="M15.3928 30.9445H7.65039V31.3489H15.3928V30.9445Z" fill="#0C0421"/>
<path d="M8.18957 30.9445H2.04785V31.3489H8.18957V30.9445Z" fill="#0C0421"/>
<path d="M1.753 31.9471C2.19503 31.9471 2.55336 31.5888 2.55336 31.1467C2.55336 30.7047 2.19503 30.3464 1.753 30.3464C1.31097 30.3464 0.952637 30.7047 0.952637 31.1467C0.952637 31.5888 1.31097 31.9471 1.753 31.9471Z" fill="#0C0421"/>
<path d="M2.91313 27.9117L2.71094 28.2619L8.02982 31.3328L8.23202 30.9825L2.91313 27.9117Z" fill="#0C0421"/>
<path d="M2.55329 28.7456C2.99532 28.7456 3.35365 28.3872 3.35365 27.9452C3.35365 27.5032 2.99532 27.1448 2.55329 27.1448C2.11126 27.1448 1.75293 27.5032 1.75293 27.9452C1.75293 28.3872 2.11126 28.7456 2.55329 28.7456Z" fill="#0C0421"/>
<path d="M8.02475 30.9594L2.70801 34.034L2.91045 34.3841L8.22719 31.3095L8.02475 30.9594Z" fill="#0C0421"/>
<path d="M2.55329 35.1569C2.99532 35.1569 3.35365 34.7985 3.35365 34.3565C3.35365 33.9145 2.99532 33.5562 2.55329 33.5562C2.11126 33.5562 1.75293 33.9145 1.75293 34.3565C1.75293 34.7985 2.11126 35.1569 2.55329 35.1569Z" fill="#0C0421"/>
<path d="M16.368 34.6115L9.21289 37.5694L9.36738 37.9431L16.5225 34.9852L16.368 34.6115Z" fill="#0C0421"/>
<path d="M9.71003 37.373L4.03418 39.7194L4.18867 40.0931L9.86452 37.7467L9.71003 37.373Z" fill="#0C0421"/>
<path d="M3.84235 40.8184C4.28438 40.8184 4.64272 40.4601 4.64272 40.0181C4.64272 39.576 4.28438 39.2177 3.84235 39.2177C3.40033 39.2177 3.04199 39.576 3.04199 40.0181C3.04199 40.4601 3.40033 40.8184 3.84235 40.8184Z" fill="#0C0421"/>
<path d="M9.70628 37.7854L3.62354 36.9851L3.67408 36.5891L9.75683 37.3895L9.70628 37.7854Z" fill="#0C0421"/>
<path d="M3.36237 37.5495C3.8044 37.5495 4.16273 37.1911 4.16273 36.7491C4.16273 36.3071 3.8044 35.9487 3.36237 35.9487C2.92035 35.9487 2.56201 36.3071 2.56201 36.7491C2.56201 37.1911 2.92035 37.5495 3.36237 37.5495Z" fill="#0C0421"/>
<path d="M9.57161 37.4443L5.83447 42.3181L6.15538 42.5642L9.89253 37.6903L9.57161 37.4443Z" fill="#0C0421"/>
<path d="M5.81403 43.4722C6.25606 43.4722 6.61439 43.1138 6.61439 42.6718C6.61439 42.2298 6.25606 41.8715 5.81403 41.8715C5.37201 41.8715 5.01367 42.2298 5.01367 42.6718C5.01367 43.1138 5.37201 43.4722 5.81403 43.4722Z" fill="#0C0421"/>
<path d="M17.9479 37.9189L12.4731 43.3936L12.7591 43.6796L18.2338 38.2048L17.9479 37.9189Z" fill="#0C0421"/>
<path d="M12.8492 43.0161L8.50635 47.3589L8.7923 47.6449L13.1351 43.302L12.8492 43.0161Z" fill="#0C0421"/>
<path d="M8.44245 48.5103C8.88448 48.5103 9.24281 48.1519 9.24281 47.7099C9.24281 47.2679 8.88448 46.9095 8.44245 46.9095C8.00042 46.9095 7.64209 47.2679 7.64209 47.7099C7.64209 48.1519 8.00042 48.5103 8.44245 48.5103Z" fill="#0C0421"/>
<path d="M12.9053 43.0208L6.97314 44.6114L7.07788 45.002L13.01 43.4114L12.9053 43.0208Z" fill="#0C0421"/>
<path d="M6.7403 45.6795C7.18233 45.6795 7.54066 45.3212 7.54066 44.8792C7.54066 44.4371 7.18233 44.0788 6.7403 44.0788C6.29828 44.0788 5.93994 44.4371 5.93994 44.8792C5.93994 45.3212 6.29828 45.6795 6.7403 45.6795Z" fill="#0C0421"/>
<path d="M11.6438 49.2095L11.0625 49.0494L12.6464 43.1183L13.2277 43.2784L11.6438 49.2095Z" fill="#0C0421"/>
<path d="M11.273 50.2121C11.715 50.2121 12.0734 49.8538 12.0734 49.4118C12.0734 48.9697 11.715 48.6114 11.273 48.6114C10.831 48.6114 10.4727 48.9697 10.4727 49.4118C10.4727 49.8538 10.831 50.2121 11.273 50.2121Z" fill="#0C0421"/>
<path d="M21.1776 40.4249L18.2197 47.5801L18.5934 47.7346L21.5514 40.5794L21.1776 40.4249Z" fill="#0C0421"/>
<path d="M18.4133 47.0992L16.0669 52.7751L16.4406 52.9296L18.787 47.2537L18.4133 47.0992Z" fill="#0C0421"/>
<path d="M16.1343 53.9107C16.5764 53.9107 16.9347 53.5523 16.9347 53.1103C16.9347 52.6683 16.5764 52.3099 16.1343 52.3099C15.6923 52.3099 15.334 52.6683 15.334 53.1103C15.334 53.5523 15.6923 53.9107 16.1343 53.9107Z" fill="#0C0421"/>
<path d="M18.4603 47.0752L13.5864 50.8124L13.8325 51.1333L18.7064 47.3961L18.4603 47.0752Z" fill="#0C0421"/>
<path d="M13.4805 51.9392C13.9226 51.9392 14.2809 51.5809 14.2809 51.1389C14.2809 50.6968 13.9226 50.3385 13.4805 50.3385C13.0385 50.3385 12.6802 50.6968 12.6802 51.1389C12.6802 51.5809 13.0385 51.9392 13.4805 51.9392Z" fill="#0C0421"/>
<path d="M19.1671 53.3294L18.3667 47.2467L18.7627 47.1961L19.563 53.2789L19.1671 53.3294Z" fill="#0C0421"/>
<path d="M19.4029 54.3908C19.8449 54.3908 20.2033 54.0324 20.2033 53.5904C20.2033 53.1484 19.8449 52.79 19.4029 52.79C18.9609 52.79 18.6025 53.1484 18.6025 53.5904C18.6025 54.0324 18.9609 54.3908 19.4029 54.3908Z" fill="#0C0421"/>
<path d="M142.785 42.3517C142.162 42.1748 141.648 41.9221 141.252 41.5935C140.856 41.2649 140.662 40.8858 140.662 40.4646V38.569H140.982C141.184 39.7485 141.572 40.5994 142.153 41.1217C142.735 41.6441 143.527 41.9052 144.538 41.9052C145.178 41.9052 145.717 41.7452 146.172 41.425C146.627 41.1049 146.854 40.6668 146.854 40.0939C146.854 39.5968 146.703 39.1671 146.391 38.8049C146.088 38.4426 145.591 38.0551 144.908 37.6507L142.735 36.3617C141.976 35.9152 141.446 35.4602 141.134 34.9968C140.822 34.5335 140.662 33.9774 140.662 33.3119C140.662 32.402 140.982 31.6775 141.606 31.1298C142.238 30.5822 143.063 30.3042 144.091 30.3042C144.689 30.3042 145.287 30.3884 145.877 30.5569C146.467 30.7254 146.955 30.9782 147.335 31.2983C147.714 31.6185 147.907 31.9976 147.907 32.4188V34.3144H147.587C147.385 33.1349 147.006 32.2925 146.45 31.7785C145.886 31.2646 145.102 31.0119 144.091 31.0119C143.552 31.0119 143.072 31.1804 142.659 31.509C142.246 31.8375 142.044 32.2672 142.044 32.798C142.044 33.2782 142.195 33.6826 142.499 34.0027C142.802 34.3229 143.308 34.6935 144.007 35.1148L146.18 36.4038C146.981 36.884 147.545 37.339 147.882 37.7518C148.211 38.1646 148.379 38.6869 148.379 39.3272C148.379 40.3214 148.051 41.1133 147.385 41.703C146.728 42.3012 145.827 42.5961 144.698 42.5961C144.049 42.5961 143.409 42.5118 142.785 42.3349V42.3517Z" fill="#0C0421"/>
<path d="M152.777 32.7558C152.777 32.1577 152.693 31.7111 152.533 31.4163C152.372 31.1214 152.035 30.9866 151.538 30.9866H151.185V30.6328H155.785C156.913 30.6328 157.933 30.8771 158.843 31.3573C159.753 31.8375 160.208 32.7811 160.208 34.1712C160.208 35.0895 159.972 35.7972 159.5 36.2943C159.028 36.7913 158.497 37.1199 157.916 37.2884C157.335 37.4569 156.796 37.5327 156.315 37.5327H154.369V42.3096H152.777V32.7558ZM156.897 36.6228C157.318 36.4291 157.68 36.1173 157.983 35.6961C158.287 35.2748 158.438 34.7357 158.438 34.0869C158.438 33.4382 158.287 32.899 157.983 32.4778C157.68 32.0566 157.318 31.7448 156.897 31.5511C156.475 31.3573 156.071 31.2562 155.692 31.2562C155.279 31.2562 154.833 31.3152 154.361 31.4331V36.7408C154.833 36.8587 155.271 36.9177 155.692 36.9177C156.071 36.9177 156.467 36.8166 156.897 36.6228Z" fill="#0C0421"/>
<path d="M170.629 41.9305C170.073 41.6188 169.635 41.0122 169.298 40.1023L168.852 38.9481H163.898L162.482 42.3096H161.682L166.636 30.6328H167.167L171.059 40.1023C171.354 40.7847 171.632 41.2565 171.893 41.5092C172.154 41.762 172.525 41.9136 173.005 41.9642V42.318C172.795 42.377 172.559 42.4023 172.297 42.4023C171.733 42.4023 171.169 42.2422 170.621 41.9305H170.629ZM164.167 38.2404H168.498L166.375 33.1097L164.167 38.2404Z" fill="#0C0421"/>
<path d="M43.6917 24.3563C42.428 23.5307 41.4928 22.4102 40.8609 20.9948C40.2375 19.5794 39.9258 17.9956 39.9258 16.2348C39.9258 14.474 40.2375 12.8901 40.8609 11.4747C41.4844 10.0594 42.428 8.93885 43.6917 8.11321C44.9554 7.28757 46.4972 6.87476 48.3338 6.87476C51.1393 6.87476 52.9843 7.32127 53.8773 8.21431C54.307 8.64398 54.5766 9.17474 54.6777 9.79818C54.7788 10.4216 54.8294 11.5506 54.8294 13.1765H54.0627C53.9616 11.6011 53.4645 10.4048 52.5715 9.60441C51.6785 8.80405 50.5243 8.39966 49.092 8.39966C47.2554 8.39966 45.8737 9.12419 44.947 10.5817C44.0203 12.0308 43.5485 13.9179 43.5485 16.2348C43.5485 18.5516 44.0118 20.4388 44.947 21.8879C45.8737 23.3369 47.2554 24.0615 49.092 24.0615C50.3895 24.0615 51.4594 23.8171 52.3019 23.3201C53.1444 22.823 53.9195 22.0563 54.6356 21.0117L55.4022 21.5846C54.5598 23.0084 53.5656 24.0362 52.4198 24.6596C51.2741 25.2831 49.9092 25.5948 48.3338 25.5948C46.4972 25.5948 44.9554 25.182 43.6917 24.3563Z" fill="#0C0421"/>
<path d="M61.2071 25.0808C60.3647 24.7353 59.6486 24.1709 59.0504 23.3789C58.4522 22.587 58.1489 21.5423 58.1489 20.2449C58.1489 18.3072 59.0504 16.9339 60.8449 16.1167C62.6394 15.2995 64.9899 14.8951 67.8965 14.8951H69.0423C69.0423 12.4013 68.6968 10.6911 68.0144 9.77279C67.3236 8.85448 66.3295 8.39954 65.032 8.39954C63.8863 8.39954 62.9679 8.64386 62.2771 9.12407C61.5863 9.60429 61.1061 10.4468 60.828 11.6431H59.1094C59.1094 10.7753 59.1599 10.0929 59.261 9.59587C59.3621 9.0988 59.6317 8.63543 60.0614 8.19734C60.5163 7.7424 61.2745 7.4054 62.3361 7.18636C63.3892 6.96731 64.5434 6.85779 65.7903 6.85779C67.8544 6.85779 69.4804 7.41383 70.6851 8.51748C71.8814 9.62957 72.4796 11.7442 72.4796 14.8783V25.1903H70.5672L69.2276 23.4716H69.0338C68.5789 24.0613 67.8965 24.5584 67.0119 24.9628C66.1188 25.3672 65.0152 25.5778 63.6841 25.5778C62.8668 25.5778 62.0412 25.4093 61.1987 25.0639L61.2071 25.0808ZM67.5089 23.2694C68.065 22.865 68.5789 22.3005 69.0338 21.5844V16.4284H67.8881C66.0009 16.4284 64.5097 16.7823 63.4145 17.4815C62.3192 18.1808 61.7716 19.1075 61.7716 20.2533C61.7716 21.3991 62.1255 22.3258 62.8247 22.9493C63.524 23.5727 64.3833 23.8844 65.4027 23.8844C66.2452 23.8844 66.9445 23.6822 67.5005 23.2694H67.5089Z" fill="#0C0421"/>
<path d="M77.9471 4.58312C77.9471 3.28569 77.7702 2.32526 77.4163 1.70182C77.0625 1.07838 76.3464 0.766662 75.2764 0.766662H74.5098V0H77.9471C78.8907 0 79.5984 0.117948 80.0702 0.362269C80.542 0.60659 80.879 1.04468 81.0812 1.67655C81.2834 2.31684 81.3845 3.27727 81.3845 4.58312V25.2156H77.9471V4.58312Z" fill="#0C0421"/>
<path d="M87.6107 11.8454C87.6107 10.5479 87.4338 9.5875 87.0799 8.96406C86.7261 8.34062 86.01 8.0289 84.94 8.0289H84.1733V7.26224H87.6107C88.5543 7.26224 89.2704 7.38861 89.7674 7.64136C90.2645 7.8941 90.6268 8.28165 90.8543 8.78714H91.048C91.5788 8.25637 92.2781 7.80143 93.129 7.43074C93.9799 7.06004 94.9403 6.8747 96.0103 6.8747C97.0802 6.8747 97.9985 7.06847 98.7652 7.46444C99.5319 7.86041 100.138 8.55124 100.602 9.54538C101.267 8.70289 102.11 8.04575 103.146 7.57396C104.174 7.10217 105.244 6.86627 106.339 6.86627C107.965 6.86627 109.271 7.38019 110.24 8.39117C111.209 9.41058 111.689 11.1966 111.689 13.741V25.2072H111.655C109.776 25.2072 108.252 23.6823 108.252 21.8035V13.741C108.252 11.9043 107.999 10.5901 107.485 9.7897C106.971 8.98934 106.213 8.58494 105.193 8.58494C104.477 8.58494 103.727 8.84611 102.936 9.36845C102.144 9.8908 101.562 10.4553 101.175 11.0703C101.301 11.4494 101.368 12.3424 101.368 13.741V25.2072H101.335C99.456 25.2072 97.9311 23.6823 97.9311 21.8035V13.741C97.9311 11.9043 97.6784 10.5901 97.1645 9.7897C96.659 8.98934 95.8923 8.58494 94.8729 8.58494C93.5249 8.58494 92.2528 9.25893 91.0564 10.6069V25.2156H91.0228C89.144 25.2156 87.6191 23.6907 87.6191 21.812V11.8454H87.6107Z" fill="#0C0421"/>
<path d="M118.825 25.0808C117.982 24.7353 117.266 24.1709 116.668 23.3789C116.07 22.587 115.767 21.5423 115.767 20.2449C115.767 18.3072 116.668 16.9339 118.463 16.1167C120.257 15.2995 122.608 14.8951 125.514 14.8951H126.66C126.66 12.4013 126.315 10.6911 125.632 9.77279C124.95 8.85448 123.947 8.39954 122.65 8.39954C121.504 8.39954 120.586 8.64386 119.895 9.12407C119.204 9.60429 118.724 10.4468 118.446 11.6431H116.727C116.727 10.7753 116.778 10.0929 116.879 9.59587C116.98 9.0988 117.249 8.63543 117.679 8.19734C118.134 7.7424 118.892 7.4054 119.954 7.18636C121.007 6.96731 122.161 6.85779 123.408 6.85779C125.472 6.85779 127.098 7.41383 128.303 8.51748C129.499 9.62957 130.097 11.7442 130.097 14.8783V25.1903H128.185L126.845 23.4716H126.652C126.197 24.0613 125.514 24.5584 124.63 24.9628C123.737 25.3672 122.633 25.5778 121.302 25.5778C120.485 25.5778 119.659 25.4093 118.816 25.0639L118.825 25.0808ZM125.127 23.2694C125.683 22.865 126.197 22.3005 126.652 21.5844V16.4284H125.506C123.619 16.4284 122.127 16.7823 121.032 17.4815C119.937 18.1808 119.389 19.1075 119.389 20.2533C119.389 21.3991 119.743 22.3258 120.442 22.9493C121.142 23.5727 122.001 23.8844 123.02 23.8844C123.863 23.8844 124.562 23.6822 125.118 23.2694H125.127Z" fill="#0C0421"/>
<path d="M135.717 11.8454C135.717 10.548 135.54 9.58756 135.186 8.96412C134.832 8.34068 134.116 8.02896 133.046 8.02896H132.667V7.2623H135.725C136.694 7.2623 137.427 7.3971 137.924 7.66669C138.421 7.93629 138.767 8.37438 138.977 8.98097H139.171C139.626 8.39123 140.249 7.90259 141.024 7.48977C141.8 7.08538 142.709 6.87476 143.754 6.87476C144.799 6.87476 145.54 7.06853 146.046 7.44765C146.475 7.77622 146.922 8.34911 147.385 9.16632L145.86 10.3121C145.582 9.93298 145.169 9.64653 144.639 9.45276C144.108 9.25899 143.493 9.16632 142.802 9.16632C142.035 9.16632 141.336 9.33481 140.704 9.68023C140.064 10.0257 139.559 10.489 139.179 11.0788V25.2157C137.284 25.2157 135.742 23.6739 135.742 21.7783V11.8454H135.717Z" fill="#0C0421"/>
<path d="M151.151 11.8453C151.151 10.5479 150.974 9.58742 150.62 8.96398C150.266 8.34054 149.55 8.02882 148.48 8.02882H147.713V7.26216H151.151C152.094 7.26216 152.802 7.38011 153.274 7.62443C153.746 7.86875 154.083 8.30684 154.285 8.93871C154.487 9.57899 154.588 10.5394 154.588 11.8453V25.2155C152.692 25.2155 151.151 23.6738 151.151 21.7782V11.8453ZM151.092 4.23764C150.671 3.75742 150.46 3.18453 150.46 2.51896C150.46 1.9882 150.62 1.56696 150.94 1.25524C151.26 0.95194 151.681 0.800293 152.221 0.800293C152.802 0.800293 153.307 1.04461 153.729 1.52483C154.15 2.00505 154.361 2.57794 154.361 3.2435C154.361 3.77427 154.201 4.19551 153.88 4.50723C153.56 4.81053 153.139 4.96217 152.6 4.96217C152.01 4.96217 151.513 4.71785 151.092 4.23764Z" fill="#0C0421"/>
<path d="M161.775 25.0808C160.932 24.7353 160.216 24.1709 159.618 23.3789C159.02 22.587 158.716 21.5423 158.716 20.2449C158.716 18.3072 159.618 16.9339 161.412 16.1167C163.207 15.2995 165.557 14.8951 168.464 14.8951H169.61C169.61 12.4013 169.264 10.6911 168.582 9.77279C167.891 8.85448 166.905 8.39954 165.599 8.39954C164.454 8.39954 163.535 8.64386 162.853 9.12407C162.162 9.60429 161.682 10.4468 161.404 11.6431H159.685C159.685 10.7753 159.736 10.0929 159.837 9.59587C159.938 9.0988 160.208 8.63543 160.637 8.19734C161.092 7.7424 161.85 7.4054 162.912 7.18636C163.965 6.96731 165.119 6.85779 166.366 6.85779C168.43 6.85779 170.056 7.41383 171.253 8.51748C172.449 9.62957 173.047 11.7442 173.047 14.8783V25.1903H171.135L169.795 23.4716H169.601C169.146 24.0613 168.464 24.5584 167.579 24.9628C166.686 25.3672 165.583 25.5778 164.251 25.5778C163.434 25.5778 162.609 25.4093 161.766 25.0639L161.775 25.0808ZM168.076 23.2694C168.641 22.865 169.146 22.3005 169.601 21.5844V16.4284H168.455C166.568 16.4284 165.077 16.7823 163.982 17.4815C162.887 18.1808 162.339 19.1075 162.339 20.2533C162.339 21.3991 162.693 22.3258 163.392 22.9493C164.091 23.5727 164.951 23.8844 165.97 23.8844C166.813 23.8844 167.512 23.6822 168.068 23.2694H168.076Z" fill="#0C0421"/>
<path d="M63.5326 35.9152C61.6959 35.9152 59.9773 35.1991 58.6798 33.9017L58.4187 33.6405C57.0791 32.3009 55.3099 31.568 53.4227 31.568H26.3115C26.261 31.0288 25.806 30.6075 25.25 30.6075C24.6603 30.6075 24.1885 31.0878 24.1885 31.6691C24.1885 32.2504 24.6687 32.7306 25.25 32.7306C25.806 32.7306 26.261 32.3094 26.3115 31.7702H53.4143C55.2509 31.7702 56.9696 32.4863 58.267 33.7837L58.5282 34.0449C59.8677 35.3844 61.637 36.1174 63.5241 36.1174H134.714V35.9152H63.5326Z" fill="#0C0421"/>
<path d="M134.933 36.3281H63.5322C61.5861 36.3281 59.7579 35.5698 58.3847 34.1966L58.1235 33.9354C56.8682 32.6801 55.1916 31.9893 53.4224 31.9893H26.4881C26.3449 32.5537 25.8479 32.9497 25.2497 32.9497C24.5504 32.9497 23.9775 32.3768 23.9775 31.6775C23.9775 30.9783 24.5504 30.4054 25.2497 30.4054C25.8479 30.4054 26.3449 30.8098 26.4881 31.3658H53.414C55.3601 31.3658 57.1883 32.1241 58.5616 33.4973L58.8228 33.7585C60.0781 35.0138 61.7546 35.7046 63.5238 35.7046H134.924V36.3365L134.933 36.3281ZM25.2581 30.8182C24.7863 30.8182 24.4072 31.2058 24.4072 31.6691C24.4072 32.1325 24.7948 32.52 25.2581 32.52C25.7046 32.52 26.0669 32.1915 26.109 31.7449V31.5764C26.0669 31.1384 25.7046 30.8014 25.2581 30.8014V30.8182Z" fill="#0C0421"/>
</svg>
