<svg width="648" height="39" viewBox="0 0 648 39" fill="none" xmlns="http://www.w3.org/2000/svg">
<g clip-path="url(#clip0_701_1058)">
<path d="M629.476 9.38611H645.207V10.7761H629.476V9.38611Z" fill="#0C0421"/>
<path d="M645.947 11.9461C644.813 11.9461 643.893 11.1133 643.893 10.0861C643.893 9.05883 644.813 8.22607 645.947 8.22607C647.081 8.22607 648 9.05883 648 10.0861C648 11.1133 647.081 11.9461 645.947 11.9461Z" fill="#0C0421"/>
<path d="M629.233 9.49609L642.867 2.36609L643.628 3.57609L630.006 10.7061L629.233 9.49609Z" fill="#0C0421"/>
<path d="M643.893 4.49612C642.759 4.49612 641.84 3.66337 641.84 2.63612C641.84 1.60887 642.759 0.776123 643.893 0.776123C645.027 0.776123 645.947 1.60887 645.947 2.63612C645.947 3.66337 645.027 4.49612 643.893 4.49612Z" fill="#0C0421"/>
<path d="M629.233 10.6662L630.006 9.45618L643.628 16.5862L642.867 17.7962L629.233 10.6662Z" fill="#0C0421"/>
<path d="M643.893 19.3861C642.759 19.3861 641.84 18.5534 641.84 17.5261C641.84 16.4989 642.759 15.6661 643.893 15.6661C645.027 15.6661 645.947 16.4989 645.947 17.5261C645.947 18.5534 645.027 19.3861 643.893 19.3861Z" fill="#0C0421"/>
<path d="M275.56 36.9261C288.454 36.9261 300.586 32.3761 309.704 24.1161L311.548 22.4461C320.942 13.9361 333.427 9.2561 346.708 9.2561H630.37V10.5661H346.708C333.814 10.5661 321.682 15.1161 312.563 23.3761L310.72 25.0461C301.325 33.5561 288.84 38.2361 275.56 38.2361H-0.00012207V36.9261H275.56Z" fill="#0C0421"/>
</g>
<defs>
<clipPath id="clip0_701_1058">
<rect width="648" height="37.46" fill="white" transform="matrix(-1 0 0 1 648 0.776123)"/>
</clipPath>
</defs>
</svg>
