<svg width="648" height="38" viewBox="0 0 648 38" fill="none" xmlns="http://www.w3.org/2000/svg">
<g clip-path="url(#clip0_701_1072)">
<path d="M18.5238 8.84607H2.79297V10.2361H18.5238V8.84607Z" fill="#0C0421"/>
<path d="M2.05329 11.406C3.18729 11.406 4.10658 10.5733 4.10658 9.54604C4.10658 8.51879 3.18729 7.68604 2.05329 7.68604C0.919288 7.68604 0 8.51879 0 9.54604C0 10.5733 0.919288 11.406 2.05329 11.406Z" fill="#0C0421"/>
<path d="M18.7667 8.95605L5.13329 1.82605L4.37158 3.03605L17.9939 10.166L18.7667 8.95605Z" fill="#0C0421"/>
<path d="M4.10651 3.95608C5.24051 3.95608 6.1598 3.12333 6.1598 2.09608C6.1598 1.06883 5.24051 0.236084 4.10651 0.236084C2.97251 0.236084 2.05322 1.06883 2.05322 2.09608C2.05322 3.12333 2.97251 3.95608 4.10651 3.95608Z" fill="#0C0421"/>
<path d="M18.7667 10.1261L17.9939 8.91614L4.37158 16.0461L5.13329 17.2561L18.7667 10.1261Z" fill="#0C0421"/>
<path d="M4.10651 18.8461C5.24051 18.8461 6.1598 18.0133 6.1598 16.9861C6.1598 15.9588 5.24051 15.1261 4.10651 15.1261C2.97251 15.1261 2.05322 15.9588 2.05322 16.9861C2.05322 18.0133 2.97251 18.8461 4.10651 18.8461Z" fill="#0C0421"/>
<path d="M372.44 36.3861C359.546 36.3861 347.414 31.8361 338.296 23.5761L336.452 21.9061C327.058 13.3961 314.573 8.71606 301.292 8.71606H17.6296V10.0261H301.292C314.186 10.0261 326.318 14.5761 335.437 22.8361L337.28 24.5061C346.675 33.0161 359.16 37.6961 372.44 37.6961H648V36.3861H372.44Z" fill="#0C0421"/>
</g>
<defs>
<clipPath id="clip0_701_1072">
<rect width="648" height="37.46" fill="white" transform="translate(0 0.236084)"/>
</clipPath>
</defs>
</svg>
