<svg width="30" height="33" viewBox="0 0 30 33" fill="none" xmlns="http://www.w3.org/2000/svg">
<path d="M14.6079 1.07534C14.6631 0.569612 15.337 0.569612 15.3922 1.07534L15.8545 5.31797C16.4514 10.7963 20.4181 15.1156 25.4492 15.7657L29.3455 16.2691C29.81 16.3291 29.81 17.063 29.3455 17.123L25.4492 17.6264C20.4181 18.2765 16.4514 22.5957 15.8545 28.0741L15.3922 32.3167C15.337 32.8225 14.6631 32.8225 14.6079 32.3167L14.1456 28.0741C13.5486 22.5957 9.58194 18.2765 4.55078 17.6264L0.654488 17.123C0.190041 17.063 0.190041 16.3291 0.654488 16.2691L4.55078 15.7657C9.58194 15.1156 13.5486 10.7963 14.1456 5.31797L14.6079 1.07534Z" fill="#0C0421"/>
</svg>
