<svg width="30" height="33" viewBox="0 0 30 33" fill="none" xmlns="http://www.w3.org/2000/svg">
<path d="M14.6079 1.17471C14.6631 0.668977 15.337 0.668977 15.3922 1.17471L15.8545 5.41734C16.4514 10.8957 20.4181 15.215 25.4492 15.865L29.3455 16.3684C29.81 16.4285 29.81 17.1623 29.3455 17.2224L25.4492 17.7258C20.4181 18.3758 16.4514 22.6951 15.8545 28.1734L15.3922 32.4161C15.337 32.9219 14.6631 32.9219 14.6079 32.4161L14.1456 28.1734C13.5486 22.6951 9.58194 18.3758 4.55078 17.7258L0.654488 17.2224C0.190041 17.1623 0.190041 16.4285 0.654488 16.3684L4.55078 15.865C9.58194 15.215 13.5486 10.8957 14.1456 5.41734L14.6079 1.17471Z" fill="#0C0421"/>
</svg>
