<svg width="86" height="89" viewBox="0 0 86 89" fill="none" xmlns="http://www.w3.org/2000/svg">
<circle cx="32.5776" cy="32.7954" r="32" fill="#CAD4FA"/>
<path fill-rule="evenodd" clip-rule="evenodd" d="M11.3241 70.2521V74.7752C11.3241 77.2678 13.3527 79.2964 15.8472 79.2964H79.1543C81.6469 79.2964 83.6755 77.2678 83.6755 74.7752V70.2519H11.3238L11.3241 70.2521ZM79.1547 81.0434H15.8476C12.3906 81.0434 9.57764 78.2307 9.57764 74.7755L9.57793 69.379C9.57793 68.8967 9.96908 68.5056 10.4511 68.5056H84.5495C85.0318 68.5056 85.4226 68.8968 85.4226 69.379V74.7755C85.4226 78.2307 82.6113 81.0437 79.1547 81.0434Z" fill="#0C0421"/>
<path fill-rule="evenodd" clip-rule="evenodd" d="M24.3477 88.7952H24.3439L19.1424 88.7878C18.6418 88.786 18.2126 88.566 17.9359 88.1692C17.2155 87.1377 17.8412 85.2819 17.9721 84.9197C18.0541 84.6975 18.0904 84.4849 18.0904 84.23V80.1689C18.0904 79.6866 18.4816 79.2958 18.9636 79.2958C19.4459 79.2958 19.837 79.687 19.837 80.1692V84.23C19.837 84.6922 19.7659 85.1034 19.6131 85.52C19.3895 86.1312 19.3163 86.7427 19.3455 87.0409L24.1488 87.0483C24.1706 86.7153 24.0632 86.0259 23.8411 85.4126C23.7685 85.207 23.7738 84.9831 23.8576 84.7814L25.9137 79.8341C26.0975 79.3884 26.6087 79.1775 27.0544 79.363C27.5001 79.5468 27.7113 80.058 27.5258 80.5037L25.5954 85.1506C25.8264 85.9002 26.1521 87.345 25.5624 88.1819C25.2842 88.5784 24.8529 88.7952 24.347 88.7952L24.3477 88.7952Z" fill="#0C0421"/>
<path fill-rule="evenodd" clip-rule="evenodd" d="M70.6537 88.7952C70.1478 88.7952 69.7165 88.5787 69.438 88.1819C68.8486 87.345 69.1743 85.9002 69.4053 85.1506L67.4731 80.5037C67.2893 80.058 67.5003 79.5467 67.9442 79.363C68.3899 79.1775 68.9012 79.3884 69.0867 79.8344L71.1428 84.7813C71.2266 84.9834 71.2319 85.2073 71.1572 85.4129C70.9372 86.0259 70.828 86.7156 70.8516 87.0486L75.6531 87.0412C75.6841 86.743 75.6112 86.1315 75.3874 85.5202C75.2346 85.1034 75.1617 84.6925 75.1617 84.2303L75.162 80.1692C75.162 79.6869 75.5528 79.2961 76.0351 79.2961C76.5192 79.2961 76.9085 79.6872 76.9085 80.1695V84.2303C76.9085 84.4851 76.9448 84.6978 77.0265 84.92C77.1596 85.2819 77.7834 87.1379 77.0649 88.1695C76.7864 88.5663 76.359 88.7863 75.8586 88.7881L70.6551 88.7955H70.6533L70.6537 88.7952Z" fill="#0C0421"/>
<path fill-rule="evenodd" clip-rule="evenodd" d="M29.4967 53.6496C29.0147 53.6496 28.6232 53.2585 28.6232 52.7762L28.6235 36.2011C28.6235 35.7188 29.0147 35.3277 29.4967 35.3277C29.979 35.3277 30.3701 35.7188 30.3701 36.2011V52.7762C30.3701 53.2582 29.9789 53.6496 29.4967 53.6496ZM13.6185 70.252C13.1362 70.252 12.7451 69.8608 12.7451 69.3789V34.762C12.7451 34.28 13.1363 33.8889 13.6182 33.8889C14.1005 33.8889 14.4917 34.2801 14.4917 34.762L14.492 69.3789C14.492 69.8609 14.1005 70.252 13.6185 70.252Z" fill="#0C0421"/>
<path fill-rule="evenodd" clip-rule="evenodd" d="M21.5565 26.1253C21.0745 26.1253 20.6831 25.7342 20.6831 25.2522L20.6834 21.5587C20.6834 21.0767 21.0746 20.6855 21.5565 20.6855C22.0388 20.6855 22.4299 21.0767 22.4299 21.5587V25.2522C22.4299 25.7345 22.0388 26.1256 21.5565 26.1253Z" fill="#0C0421"/>
<path fill-rule="evenodd" clip-rule="evenodd" d="M24.7312 30.0975C24.8312 30.0975 24.9312 30.1031 25.0315 30.1176C26.1778 30.2668 27.0421 31.253 27.0421 32.4102V34.6261C27.0421 35.2686 27.5642 35.7907 28.2064 35.7907C28.8507 35.7907 29.3728 35.2686 29.3728 34.6264V27.4323C29.3728 26.7901 28.8503 26.268 28.2064 26.268H14.9064C14.2642 26.268 13.7421 26.7901 13.7421 27.4326V33.1875C13.7421 33.8296 14.2642 34.3518 14.9064 34.3518C15.5486 34.3518 16.0728 33.8296 16.0728 33.1875V32.4105C16.0728 31.2533 16.9371 30.2692 18.0831 30.1179C19.2295 29.9668 20.3191 30.6946 20.6176 31.8117C20.7323 32.2394 21.1179 32.5359 21.5563 32.5359C21.9967 32.5359 22.3823 32.2394 22.497 31.8117C22.7698 30.7928 23.6997 30.0979 24.7312 30.0979L24.7312 30.0975ZM28.2064 37.5371C26.6017 37.5371 25.2952 36.2309 25.2952 34.6262V32.4099C25.2952 32.1223 25.0896 31.886 24.8038 31.8477C24.5182 31.8093 24.258 31.986 24.1834 32.2624C23.8669 33.4524 22.786 34.2819 21.5563 34.2819C20.3282 34.2819 19.2474 33.4521 18.9308 32.2624C18.8562 31.9857 18.596 31.8111 18.3105 31.8477C18.0249 31.8857 17.8193 32.1223 17.8193 32.4099V33.1869C17.8193 34.7934 16.5128 36.0981 14.9064 36.0981C13.3016 36.0981 11.9951 34.7937 11.9951 33.1869V27.432C11.9951 25.8255 13.3013 24.5208 14.9061 24.5208H28.206C29.8125 24.5208 31.1187 25.8255 31.1187 27.432V34.6262C31.1187 36.2309 29.8122 37.5374 28.2057 37.5371H28.2064Z" fill="#0C0421"/>
<path fill-rule="evenodd" clip-rule="evenodd" d="M31.2975 67.2926C31.1284 67.2926 30.9553 67.2433 30.8042 67.138C26.0703 63.8866 24.9673 59.8474 24.8782 57.0331C24.78 53.9983 25.8024 51.744 25.8461 51.6493C26.0009 51.3127 26.3519 51.1107 26.7195 51.1455C26.8959 51.1617 31.0714 51.5803 34.2502 54.9334C34.5833 55.2844 34.5667 55.8357 34.2175 56.1688C33.8682 56.5 33.3151 56.4853 32.9821 56.136C30.9499 53.9891 28.3735 53.2357 27.1962 52.992C26.5322 54.9478 25.1293 61.1214 31.7939 65.6992C32.1907 65.9721 32.2925 66.516 32.0196 66.9146C31.8488 67.16 31.5756 67.2931 31.2972 67.2931L31.2975 67.2926Z" fill="#0C0421"/>
<path fill-rule="evenodd" clip-rule="evenodd" d="M31.9286 69.9771C28.2463 69.9771 25.2002 69.0237 22.8462 67.1298C18.8436 63.913 18.3669 59.181 18.3485 58.9808C18.314 58.6133 18.5158 58.264 18.8524 58.1095C18.9834 58.0475 22.1256 56.6304 26.0046 57.3254C26.4796 57.4109 26.7943 57.864 26.7088 58.3387C26.6253 58.8136 26.1701 59.1301 25.6955 59.0446C23.2867 58.6115 21.1887 59.1337 20.1955 59.4649C20.463 60.7475 21.338 63.688 23.958 65.7838C26.5506 67.8596 30.1858 68.6187 34.7622 68.0435C35.2409 67.9833 35.6775 68.3237 35.7374 68.8022C35.7976 69.2806 35.4589 69.7172 34.9805 69.7774C33.9197 69.9101 32.9026 69.9774 31.9295 69.9774L31.9286 69.9771Z" fill="#0C0421"/>
<path fill-rule="evenodd" clip-rule="evenodd" d="M37.1743 52.1274C34.738 55.0549 30.3896 61.3812 31.6669 65.1706C32.2274 66.8335 33.8902 67.9361 36.6067 68.4494C36.8053 68.4874 36.987 68.5057 37.1655 68.5057C37.3601 68.5057 37.5421 68.4874 37.7404 68.4494C40.4587 67.9361 42.1197 66.832 42.6802 65.1706C43.9593 61.3736 39.6109 55.0529 37.1746 52.1274H37.1743ZM37.1873 70.2529H37.1599C36.8743 70.2511 36.5867 70.2237 36.2811 70.1656C32.8991 69.5269 30.7882 68.0331 30.0115 65.7281C27.9976 59.7528 36.1758 50.5923 36.5251 50.2064C36.6906 50.0226 36.9272 49.917 37.1746 49.917C37.4204 49.917 37.657 50.0226 37.8224 50.2064C38.172 50.5919 46.3505 59.7532 44.336 65.7281C43.5594 68.0334 41.4487 69.5269 38.0664 70.1656C37.7608 70.2237 37.4732 70.2511 37.1876 70.2529H37.1873Z" fill="#0C0421"/>
<path fill-rule="evenodd" clip-rule="evenodd" d="M43.0493 67.2926C42.7709 67.2926 42.498 67.1599 42.3287 66.9141C42.054 66.5156 42.1558 65.9717 42.5526 65.6988C45.8712 63.4191 47.6107 60.4861 47.7234 56.9781C47.7801 55.2223 47.4034 53.7686 47.145 52.9917C45.9679 53.2374 43.3951 53.9905 41.3647 56.1356C41.0337 56.4849 40.4803 56.4997 40.1293 56.1684C39.78 55.8353 39.7653 55.2843 40.0966 54.933C43.2754 51.5799 47.4526 51.1613 47.6273 51.1451C47.9969 51.1123 48.3459 51.3123 48.5004 51.6489C48.5441 51.7433 49.5665 53.9979 49.4701 57.0327C49.3792 59.8475 48.2765 63.8865 43.5423 67.1376C43.3913 67.2415 43.2184 67.2922 43.0494 67.2922L43.0493 67.2926Z" fill="#0C0421"/>
<path fill-rule="evenodd" clip-rule="evenodd" d="M42.4183 69.9771C41.4451 69.9771 40.4278 69.9098 39.3673 69.7771C38.8888 69.7169 38.5505 69.2803 38.6104 68.8019C38.6706 68.3234 39.1071 67.983 39.5856 68.0432C44.1618 68.6181 47.7965 67.8594 50.3898 65.7836C53.0081 63.6895 53.883 60.7529 54.1523 59.4664C53.1535 59.1372 51.0464 58.6148 48.6523 59.0443C48.1776 59.1299 47.7243 58.8133 47.6387 58.3384C47.5534 57.8635 47.8679 57.4107 48.3428 57.3251C52.2237 56.6301 55.3641 58.0473 55.4951 58.1092C55.8317 58.2638 56.0337 58.6131 55.9989 58.9806C55.9809 59.1806 55.5039 63.913 51.503 67.1296C49.147 69.0234 46.1013 69.9771 42.4184 69.9768L42.4183 69.9771Z" fill="#0C0421"/>
<path fill-rule="evenodd" clip-rule="evenodd" d="M74.648 53.7267C74.166 53.7267 73.7746 53.3356 73.7746 52.8536V40.66C73.7746 39.4429 73.1743 38.2948 72.1681 37.5906C71.8699 37.3814 71.5805 37.1921 71.2985 37.0065C69.943 36.1186 68.6622 35.28 68.3091 33.3457C68.2218 32.8708 68.5365 32.4159 69.0114 32.3304C69.4864 32.2431 69.9412 32.5578 70.0268 33.031C70.238 34.179 70.8982 34.6575 72.2557 35.5454C72.5486 35.7384 72.8507 35.9348 73.1707 36.1587C74.6427 37.1903 75.5215 38.8732 75.5215 40.6599L75.5218 52.8535C75.5218 53.3358 75.1306 53.727 74.6484 53.727L74.648 53.7267ZM52.6259 59.063C52.1436 59.063 51.7524 58.6719 51.7524 58.1899V40.6595C51.7524 38.8728 52.6312 37.1899 54.1049 36.1583C54.4232 35.9344 54.7253 35.738 55.0182 35.5451C56.3758 34.6571 57.036 34.1787 57.2472 33.0306C57.3327 32.5574 57.7876 32.2426 58.2625 32.33C58.7374 32.4155 59.0522 32.8704 58.9649 33.3453C58.6121 35.2792 57.3309 36.1182 55.9755 37.0061C55.6955 37.1917 55.4041 37.3811 55.1058 37.5902C54.0999 38.2943 53.4993 39.4424 53.4993 40.6596L53.4996 58.19C53.4996 58.672 53.1082 59.0634 52.6262 59.0631L52.6259 59.063Z" fill="#0C0421"/>
<path fill-rule="evenodd" clip-rule="evenodd" d="M74.648 45.7024H52.6259C52.1436 45.7024 51.7524 45.3112 51.7524 44.8292C51.7524 44.3469 52.1436 43.9558 52.6259 43.9558H74.648C75.1303 43.9558 75.5211 44.347 75.5211 44.8292C75.5214 45.3112 75.13 45.7024 74.648 45.7024Z" fill="#0C0421"/>
<path fill-rule="evenodd" clip-rule="evenodd" d="M69.1678 34.0621H58.1054C57.6233 34.0621 57.2319 33.6709 57.2319 33.1887L57.2322 28.6093C57.2322 28.127 57.6234 27.7358 58.1053 27.7358C58.5876 27.7358 58.9788 28.127 58.9788 28.6093V32.3155H68.2945V28.6093C68.2945 28.127 68.6857 27.7358 69.1676 27.7358C69.6496 27.7358 70.0408 28.127 70.0408 28.6093V33.1887C70.0408 33.671 69.6496 34.0621 69.1676 34.0621H69.1678Z" fill="#0C0421"/>
<path fill-rule="evenodd" clip-rule="evenodd" d="M58.0598 27.7359H69.2128V24.8757H58.0598V27.7359ZM69.3533 29.4825H57.9216C57.0336 29.4825 56.313 28.7604 56.313 27.8743L56.3133 24.7377C56.3133 23.8497 57.0336 23.1294 57.9216 23.1294H69.3533C70.2394 23.1294 70.9597 23.8501 70.9597 24.738V27.8746C70.9597 28.7604 70.2391 29.4828 69.3533 29.4828L69.3533 29.4825Z" fill="#0C0421"/>
<path fill-rule="evenodd" clip-rule="evenodd" d="M66.517 24.8756C66.0346 24.8756 65.6435 24.4844 65.6435 24.0024V18.2602C65.6435 17.1541 64.7429 16.2535 63.6364 16.2535C62.5303 16.2535 61.6297 17.1541 61.6297 18.2602V24.0024C61.6297 24.4845 61.2385 24.8759 60.7562 24.8759C60.2742 24.8759 59.8828 24.4847 59.8828 24.0024L59.8831 18.2602C59.8831 16.1897 61.5678 14.5068 63.6365 14.5068C65.7053 14.5068 67.3899 16.1897 67.3899 18.2602V24.0024C67.3899 24.4845 66.9988 24.8759 66.5168 24.8756H66.517Z" fill="#0C0421"/>
<path fill-rule="evenodd" clip-rule="evenodd" d="M80.0625 61.9905C79.5805 61.9905 79.1891 61.5994 79.1891 61.1171C79.1891 60.6333 79.5802 60.244 80.0622 60.244C80.7191 60.244 81.2539 59.7092 81.2539 59.0504C81.2539 58.3935 80.7191 57.8587 80.0622 57.8587H60.3705C59.7135 57.8587 59.1788 58.3935 59.1788 59.0504C59.1788 59.7088 59.7136 60.244 60.3705 60.244H62.4374C62.9195 60.244 63.3106 60.6333 63.3106 61.1174C63.3106 61.5997 62.9194 61.9908 62.4374 61.9908H60.3708C58.7495 61.9908 57.4321 60.6719 57.4321 59.0507C57.4321 57.4315 58.7495 56.1123 60.3705 56.1123H80.0622C81.6835 56.1123 83.0024 57.4315 83.0024 59.0507C83.0027 60.6719 81.6832 61.9908 80.0622 61.9908L80.0625 61.9905Z" fill="#0C0421"/>
<path fill-rule="evenodd" clip-rule="evenodd" d="M62.4412 70.2521C59.681 70.2521 57.4355 68.007 57.4355 65.2467C57.4355 62.4883 59.6807 60.2432 62.4409 60.2432H80.0657C80.548 60.2432 80.9388 60.6325 80.9388 61.1166C80.9391 61.5989 80.5477 61.99 80.0654 61.99H62.4406C60.6429 61.99 59.1819 63.4511 59.1819 65.247C59.1819 67.0446 60.643 68.5057 62.4406 68.5057C62.9229 68.5057 63.3137 68.8968 63.3137 69.3791C63.3137 69.8611 62.9225 70.2522 62.4406 70.2522L62.4412 70.2521Z" fill="#0C0421"/>
<path fill-rule="evenodd" clip-rule="evenodd" d="M80.0625 70.2519C79.5805 70.2519 79.1891 69.8607 79.1891 69.3788C79.1891 68.8965 79.5802 68.5054 80.0622 68.5054C80.7191 68.5054 81.2539 67.9705 81.2539 67.3136C81.2539 66.6549 80.7191 66.1201 80.0622 66.1201H63.5565C63.0745 66.1201 62.6831 65.7289 62.6831 65.247C62.6831 64.7647 63.0743 64.3735 63.5562 64.3735H80.0619C81.6832 64.3735 83.0021 65.6927 83.0021 67.314C83.0024 68.9332 81.6829 70.2524 80.0619 70.2524L80.0625 70.2519Z" fill="#0C0421"/>
<path fill-rule="evenodd" clip-rule="evenodd" d="M80.0624 66.1204C79.5804 66.1204 79.189 65.7293 79.189 65.2473C79.189 64.765 79.5801 64.3739 80.0621 64.3739C80.719 64.3739 81.2538 63.8391 81.2538 63.1822C81.2538 62.5253 80.719 61.9904 80.0621 61.9904C79.5801 61.9904 79.189 61.5993 79.189 61.117C79.189 60.6332 79.5801 60.2439 80.0621 60.2439C81.6834 60.2439 83.0004 61.561 83.0004 63.1822C83.0007 64.8032 81.6831 66.1206 80.0621 66.1206L80.0624 66.1204Z" fill="#0C0421"/>
<path fill-rule="evenodd" clip-rule="evenodd" d="M80.0625 57.859C79.5805 57.859 79.1891 57.4678 79.1891 56.9856C79.1891 56.5033 79.5802 56.1121 80.0622 56.1121C80.7191 56.1121 81.2539 55.5773 81.2539 54.9204C81.2539 54.2617 80.7191 53.7269 80.0622 53.7269H60.3705C59.7135 53.7269 59.1788 54.2617 59.1788 54.9204C59.1788 55.577 59.7136 56.1121 60.3705 56.1121H62.4374C62.9195 56.1121 63.3106 56.5033 63.3106 56.9856C63.3106 57.4676 62.9194 57.859 62.4374 57.859H60.3708C58.7495 57.859 57.4321 56.5398 57.4321 54.9206C57.4321 53.2994 58.7495 51.9805 60.3705 51.9805H80.0622C81.6835 51.9805 83.0024 53.2997 83.0024 54.9209C83.0027 56.5401 81.6832 57.8593 80.0622 57.8593L80.0625 57.859Z" fill="#0C0421"/>
<path d="M22.2368 9.12005C27.7625 15.0171 27.428 19.0384 25.3109 21.0305C24.3177 21.965 22.9321 22.4323 21.5575 22.4323C20.1828 22.4323 18.7972 21.965 17.8041 21.0305C14.0926 17.5385 18.381 11.7707 20.9215 9.07021C21.2855 8.68318 21.9044 8.70974 22.2368 9.11976V9.12005ZM24.1168 19.7611C25.5442 18.418 25.5985 15.5289 21.5575 10.9604C17.5164 15.5288 17.5707 18.418 18.9981 19.7611C19.6527 20.377 20.5996 20.685 21.5575 20.685C22.5153 20.685 23.4622 20.377 24.1168 19.7611Z" fill="#0C0421"/>
</svg>
