<svg width="96" height="89" viewBox="0 0 96 89" fill="none" xmlns="http://www.w3.org/2000/svg">
<circle cx="32.6523" cy="32.7954" r="32" fill="#CAD4FA"/>
<path d="M30.8442 8.79541C30.0245 8.79541 29.238 9.1209 28.6585 9.70068C28.0787 10.2804 27.7529 11.0669 27.7529 11.8867C27.7529 12.7066 28.0787 13.4927 28.6585 14.0725C29.238 14.6522 30.0244 14.978 30.8442 14.978C31.6641 14.978 32.4505 14.6522 33.03 14.0725C33.6098 13.4927 33.9356 12.7066 33.9356 11.8867C33.9346 11.0673 33.6085 10.2814 33.029 9.70192C32.4496 9.12215 31.6637 8.79634 30.8442 8.79541ZM30.8442 13.1596C30.5066 13.1596 30.183 13.0253 29.9441 12.7868C29.7053 12.548 29.5713 12.2243 29.5713 11.8867C29.5713 11.549 29.7053 11.2254 29.9441 10.9865C30.1829 10.7477 30.5066 10.6137 30.8442 10.6137C31.1819 10.6137 31.5055 10.7477 31.7444 10.9865C31.9832 11.2253 32.1172 11.549 32.1172 11.8867C32.1169 12.224 31.9826 12.5477 31.7438 12.7862C31.5053 13.025 31.1819 13.1593 30.8442 13.1596Z" fill="#0C0421"/>
<path d="M78.4863 22.2517C78.4863 23.0715 78.8121 23.8577 79.3919 24.4374C79.9714 25.0172 80.7578 25.343 81.5776 25.343C82.3975 25.343 83.1839 25.0172 83.7634 24.4374C84.3432 23.8577 84.669 23.0716 84.669 22.2517C84.669 21.4319 84.3432 20.6455 83.7634 20.0657C83.1839 19.4859 82.3975 19.1604 81.5776 19.1604C80.7582 19.1613 79.9723 19.4871 79.3928 20.0669C78.8134 20.6464 78.4873 21.4323 78.4863 22.2517ZM81.5776 20.9788C81.9153 20.9788 82.2389 21.1128 82.4778 21.3516C82.7166 21.5904 82.8506 21.9141 82.8506 22.2518C82.8506 22.5894 82.7166 22.9131 82.4778 23.1519C82.239 23.3904 81.9153 23.5247 81.5776 23.5247C81.24 23.5247 80.9163 23.3904 80.6775 23.1519C80.4387 22.9131 80.3047 22.5894 80.3047 22.2518C80.305 21.9141 80.4393 21.5908 80.6781 21.3519C80.9166 21.1134 81.24 20.9791 81.5776 20.9788Z" fill="#0C0421"/>
<path d="M17.9233 32.4513C18.1645 32.4519 18.3958 32.3558 18.5661 32.1852L20.6188 30.1329C20.9713 29.7774 20.97 29.2036 20.6161 28.8497C20.2621 28.496 19.6884 28.4945 19.3329 28.8469L17.2805 30.8993C17.0205 31.1593 16.9426 31.5503 17.0835 31.8901C17.2241 32.2298 17.5557 32.4513 17.9233 32.4513Z" fill="#0C0421"/>
<path d="M12.2799 38.0956C12.5211 38.0959 12.7523 38.0002 12.9227 37.8292L14.975 35.7769C15.3224 35.4208 15.319 34.8513 14.9672 34.4994C14.6153 34.1473 14.0458 34.1436 13.6894 34.4913L11.637 36.5433C11.377 36.8033 11.2991 37.1946 11.4397 37.5343C11.5804 37.874 11.9119 38.0956 12.2799 38.0956Z" fill="#0C0421"/>
<path d="M13.7173 32.1564C14.0728 32.5089 14.6466 32.5077 15.0005 32.1537C15.3542 31.7997 15.3557 31.2263 15.0032 30.8708L12.9506 28.8184C12.7802 28.6466 12.5487 28.5499 12.3068 28.5493C12.065 28.5487 11.8328 28.6445 11.6619 28.8157C11.491 28.9866 11.3952 29.2188 11.3955 29.4606C11.3961 29.7025 11.4931 29.934 11.6646 30.1044L13.7173 32.1564Z" fill="#0C0421"/>
<path d="M18.5951 34.4615C18.4248 34.2897 18.1932 34.193 17.9514 34.1924C17.7095 34.1918 17.4774 34.2876 17.3064 34.4588C17.1355 34.6297 17.0397 34.8619 17.04 35.1037C17.0406 35.3456 17.1376 35.5771 17.3092 35.7474L19.3615 37.8001L19.3618 37.7998C19.7167 38.155 20.2926 38.155 20.6477 37.7998C21.0026 37.4446 21.0026 36.8691 20.6474 36.5139L18.5951 34.4615Z" fill="#0C0421"/>
<path d="M64.1656 15.336C63.8092 14.9884 63.2397 14.992 62.8878 15.3442C62.536 15.696 62.5323 16.2655 62.88 16.6216L64.8023 18.5439C64.972 18.7182 65.2045 18.817 65.4475 18.8185C65.6906 18.82 65.9243 18.724 66.0961 18.5521C66.2679 18.3803 66.364 18.1466 66.3625 17.9036C66.3607 17.6605 66.2619 17.428 66.0879 17.2583L64.1656 15.336Z" fill="#0C0421"/>
<path d="M58.879 10.0491C58.5238 9.69395 57.9482 9.69395 57.5931 10.0488C57.2379 10.404 57.2379 10.9799 57.5931 11.3347L59.5154 13.2571L59.5151 13.2574C59.8706 13.6099 60.4443 13.6086 60.7983 13.2547C61.1522 12.9007 61.1535 12.3273 60.8013 11.9718L58.879 10.0491Z" fill="#0C0421"/>
<path d="M66.1148 10.0772C65.7596 9.72231 65.1841 9.72231 64.8292 10.0772L62.9065 11.9987C62.7359 12.1693 62.6401 12.4006 62.6401 12.6418C62.6401 12.8827 62.7359 13.114 62.9065 13.2846C63.2614 13.6398 63.8372 13.6398 64.1921 13.2846L66.1145 11.3623H66.1148C66.4694 11.0074 66.4694 10.4322 66.1148 10.0773L66.1148 10.0772Z" fill="#0C0421"/>
<path d="M59.5425 15.3623L57.6205 17.2847C57.4487 17.455 57.3517 17.6865 57.3511 17.9284C57.3505 18.1702 57.4465 18.4024 57.6175 18.5733C57.7884 18.7442 58.0206 18.8403 58.2621 18.8397C58.5039 18.8391 58.7358 18.7424 58.9061 18.5706L60.8285 16.6482C61.1836 16.293 61.1836 15.7175 60.8285 15.3623C60.4736 15.0071 59.8977 15.0071 59.5425 15.3623Z" fill="#0C0421"/>
<path d="M33.1259 41.5667C32.9744 41.7552 32.9041 41.9965 32.9307 42.2371C32.9574 42.4777 33.0789 42.6975 33.2684 42.8481C33.4578 42.999 33.6993 43.0678 33.94 43.0396C34.1803 43.0117 34.3994 42.889 34.5491 42.6987C34.7779 42.4111 35.0389 42.141 35.3156 41.8556C36.2875 40.8509 37.3897 39.7119 37.3897 37.465C37.3897 35.218 36.2875 34.0794 35.3156 33.0747C34.4427 32.1725 33.7529 31.46 33.7529 29.9486C33.7529 28.4372 34.4424 27.7253 35.3156 26.8231C35.5486 26.5824 35.7899 26.333 36.0214 26.0621H36.0211C36.1854 25.8799 36.269 25.639 36.253 25.3944C36.2369 25.1495 36.1227 24.9216 35.9363 24.7625C35.7499 24.6031 35.5068 24.5258 35.2629 24.5482C35.0186 24.5707 34.7937 24.6907 34.6391 24.8813C34.4443 25.1092 34.233 25.3274 34.0094 25.5587C33.0368 26.563 31.9346 27.7017 31.9346 29.9486C31.9346 32.1956 33.0368 33.3342 34.0087 34.3392C34.8816 35.2414 35.5714 35.9539 35.5714 37.465C35.5714 38.9761 34.8819 39.6889 34.0087 40.5912C33.7142 40.8954 33.4099 41.21 33.1259 41.5667Z" fill="#0C0421"/>
<path d="M45.2186 35.3846C45.067 35.5731 44.9967 35.8143 45.0234 36.055C45.05 36.2956 45.1716 36.5153 45.361 36.6659C45.5504 36.8169 45.792 36.8857 46.0326 36.8575C46.2729 36.8296 46.492 36.7069 46.6418 36.5165C46.8706 36.2289 47.1315 35.9589 47.4082 35.6734C48.3804 34.6688 49.4824 33.5298 49.4824 31.2829C49.4824 29.0359 48.3801 27.8973 47.4082 26.8926C46.5354 25.9904 45.8456 25.2779 45.8456 23.7665C45.8456 22.2551 46.535 21.5432 47.4082 20.6409C47.6413 20.4003 47.8825 20.1509 48.1141 19.8799H48.1138C48.278 19.6978 48.3617 19.4569 48.3456 19.2123C48.3296 18.9674 48.2153 18.7395 48.0289 18.5804C47.8425 18.421 47.5995 18.3437 47.3555 18.3661C47.1112 18.3885 46.8863 18.5086 46.7318 18.6992C46.5369 18.9271 46.3257 19.1453 46.102 19.3765C45.1298 20.3809 44.0278 21.5198 44.0278 23.7665C44.0278 26.0134 45.1301 27.1521 46.102 28.157C46.9748 29.0593 47.6646 29.7718 47.6646 31.2829C47.6646 32.794 46.9752 33.5068 46.102 34.409C45.8068 34.7133 45.5025 35.0279 45.2186 35.3846Z" fill="#0C0421"/>
<path d="M57.311 41.5667C57.1594 41.7552 57.0891 41.9965 57.1158 42.2371C57.1425 42.4777 57.264 42.6975 57.4534 42.8481C57.6428 42.999 57.8844 43.0678 58.125 43.0396C58.3653 43.0117 58.5845 42.889 58.7342 42.6987C58.963 42.4111 59.2239 42.141 59.5006 41.8556C60.4726 40.8509 61.5748 39.7119 61.5748 37.465C61.5748 35.218 60.4726 34.0794 59.5006 33.0747C58.6278 32.1725 57.938 31.46 57.938 29.9486C57.938 28.4372 58.6275 27.7253 59.5006 26.8231C59.7337 26.5824 59.9749 26.333 60.2065 26.0621H60.2062C60.3704 25.8799 60.4541 25.639 60.438 25.3944C60.422 25.1495 60.3077 24.9216 60.1213 24.7625C59.9349 24.6031 59.6919 24.5258 59.4479 24.5482C59.2036 24.5707 58.9788 24.6907 58.8242 24.8813C58.6293 25.1092 58.4181 25.3274 58.1944 25.5587C57.2219 26.563 56.1196 27.7017 56.1196 29.9486C56.1196 32.1956 57.2219 33.3342 58.1938 34.3392C59.0666 35.2414 59.7564 35.9539 59.7564 37.465C59.7564 38.9761 59.067 39.6889 58.1938 40.5912C57.8992 40.8954 57.5949 41.21 57.311 41.5667Z" fill="#0C0421"/>
<path d="M94.6521 43.0222C90.7095 42.0702 87.4149 42.3966 84.8577 43.9926C84.2228 44.3899 83.6388 44.8633 83.1184 45.4025C83.0229 43.5228 82.3432 41.6636 81.0818 39.8769C79.8886 38.2228 78.4021 36.8014 76.6958 35.6837C76.2712 35.4224 75.715 35.5521 75.4499 35.9746C73.2938 39.406 72.5538 42.6309 73.2496 45.5595C73.4084 46.226 73.6412 46.8724 73.9436 47.487C72.1865 47.0073 70.268 47.0491 68.2338 47.6292C67.2334 47.9195 66.2642 48.3087 65.3404 48.7902H9.19808C7.93127 48.7902 6.76081 49.4661 6.1274 50.5632C5.49399 51.6604 5.49399 53.012 6.1274 54.1091C6.76082 55.2062 7.93127 55.8821 9.19808 55.8821H11.3868V56.8389C11.3868 68.1252 19.3874 77.8366 30.2983 80.2146V87.8764C30.291 88.1153 30.3798 88.3471 30.545 88.5199C30.7102 88.6926 30.9381 88.792 31.1769 88.7954H37.3149C37.8337 88.7963 38.2647 88.3944 38.2993 87.8764V80.7944H56.8469V87.8764C56.8357 88.1134 56.9208 88.3447 57.083 88.5177C57.2454 88.6911 57.4706 88.7911 57.7079 88.7953H63.8456C64.3478 88.7953 64.666 88.3786 64.666 87.8764V80.2125C69.1496 79.2384 73.2593 76.999 76.5086 73.7598C79.7578 70.5206 82.0102 66.4177 82.9985 61.9374C84.0474 62.8714 85.2624 63.6 86.5807 64.0846C88.4098 64.7592 90.3421 65.1114 92.2914 65.1254C92.4502 65.1254 92.546 65.122 92.5657 65.1211H92.566C93.0646 65.1014 93.4543 64.6835 93.4389 64.1847C93.3137 60.1262 92.125 57.0325 89.9057 54.99C89.2368 54.376 88.4818 53.8635 87.6645 53.4686C89.6141 52.8282 91.3261 51.5387 92.7354 49.6178V49.6181C93.9286 47.9567 94.806 46.0904 95.3242 44.112C95.4372 43.6253 95.1366 43.1388 94.6511 43.0221L94.6521 43.0222ZM81.3516 53.5575C81.1195 53.936 80.7246 54.1848 80.283 54.2309C79.8418 54.2773 79.4039 54.1154 79.0983 53.7933C78.7928 53.4711 78.6546 53.0253 78.7243 52.5867C78.794 52.1485 79.0638 51.7675 79.4538 51.5557C79.8442 51.3442 80.3106 51.3263 80.7161 51.5069C81.1216 51.6878 81.4199 52.0467 81.5232 52.4785C81.6126 52.8464 81.5511 53.235 81.3522 53.5574L81.3516 53.5575ZM76.8892 59.8719C77.3478 60.0762 77.8848 59.8701 78.0894 59.4119L79.5508 56.1357V56.136C79.5675 56.0954 79.5814 56.0535 79.592 56.0111C79.6311 56.0178 79.6711 56.0211 79.7105 56.0263C80.0906 57.2188 80.5867 59.6189 79.5162 62.0385C78.5934 64.1252 76.6898 65.7971 73.8513 67.0179V67.0182C73.4527 65.5842 73.2712 64.0982 73.3127 62.6101C73.4476 59.1706 75.0108 56.7052 77.9615 55.2723C77.9348 55.3111 77.9112 55.3523 77.8912 55.395L76.4298 58.6712C76.3316 58.8915 76.3246 59.1416 76.411 59.3668C76.4974 59.5922 76.6695 59.7738 76.8898 59.872L76.8892 59.8719ZM76.4992 37.7647C77.683 38.6588 78.7267 39.7241 79.5962 40.9257C81.5831 43.7385 81.8444 46.6456 80.3781 49.5749C80.3478 49.5728 80.3175 49.5722 80.2872 49.5707C80.2836 49.548 80.2833 49.5255 80.2781 49.5028L79.4428 46.0142C79.388 45.7781 79.2413 45.5738 79.0352 45.4465C78.8294 45.319 78.5809 45.2793 78.3454 45.3356C78.1099 45.392 77.9066 45.5399 77.7805 45.7469C77.6544 45.9539 77.6163 46.2024 77.6744 46.4376L78.5097 49.9265C78.5152 49.9489 78.5243 49.9695 78.5312 49.9914C78.5131 50.002 78.4928 50.0108 78.4746 50.0217C77.4502 49.2943 75.6236 47.6857 75.0196 45.1392C74.4935 42.9268 74.9914 40.4496 76.4998 37.7647L76.4992 37.7647ZM68.7321 49.3785C72.0495 48.4329 74.8823 49.1527 77.1641 51.5164C77.1586 51.5288 77.1532 51.5409 77.148 51.5527L73.5915 51.2136C73.0915 51.1657 72.6478 51.5324 72.6002 52.0322C72.5523 52.5323 72.919 52.976 73.4188 53.0238L76.9399 53.3596C76.9441 53.3848 76.949 53.4099 76.9538 53.4351C75.9325 54.1624 73.8068 55.3626 71.1943 55.0929C68.9316 54.8589 66.7574 53.5702 64.7208 51.2581H64.7211C65.9573 50.4356 67.3095 49.8021 68.7328 49.3785L68.7321 49.3785ZM9.19927 54.0636C8.73407 54.0673 8.28641 53.8851 7.9555 53.5575C7.62486 53.2302 7.43816 52.7844 7.43695 52.3192C7.43635 51.8582 7.62334 51.4173 7.9546 51.0969C8.28675 50.7729 8.73557 50.5968 9.1993 50.6087H62.6285C62.4218 50.9345 62.4442 51.3554 62.6839 51.6576C63.3695 52.5256 64.1308 53.3308 64.9594 54.0637L9.19927 54.0636ZM36.4822 86.9769H32.118V80.5397C33.2006 80.7001 34.2931 80.7849 35.3872 80.7943H36.4822V86.9769ZM62.8488 86.9769H58.6665V80.7943H59.6369C60.7125 80.7925 61.7863 80.7073 62.8488 80.5397V86.9769ZM75.6256 72.1108C73.5599 74.2722 71.0789 75.9946 68.3313 77.1742C65.584 78.354 62.6267 78.9668 59.6371 78.9762H35.387C34.0183 78.9723 32.6527 78.8438 31.3074 78.5917C26.2255 77.6488 21.634 74.9579 18.3281 70.9849C15.022 67.012 13.2102 62.0075 13.2066 56.8396V55.8828H67.6094C68.6699 56.4289 69.8222 56.7747 71.0081 56.9027C71.3196 56.9351 71.6324 56.9511 71.9458 56.9511C72.3955 56.9505 72.8447 56.9175 73.2899 56.8517C72.1919 58.4131 71.583 60.3237 71.4963 62.5395L71.496 62.5398C71.4366 64.5845 71.7539 66.623 72.4322 68.5532C72.6104 69.0194 73.1313 69.2542 73.5987 69.0794C76.8812 67.8553 79.2266 66.1096 80.5953 63.8835L80.595 63.8832C79.5679 66.96 77.8708 69.77 75.6256 72.1112L75.6256 72.1108ZM88.6754 56.3268C90.3517 57.8698 91.3234 60.2061 91.5701 63.2813C90.0702 63.1983 88.5915 62.8901 87.1835 62.3664C84.0176 61.1423 82.201 58.9011 81.7722 55.701L84.3877 57.9116V57.9119C84.7711 58.2359 85.3448 58.1877 85.6691 57.8043C85.9931 57.4206 85.9449 56.8469 85.5615 56.5229L82.9897 54.3496C83.0148 54.3032 83.0415 54.2586 83.0642 54.2108C84.3183 54.2374 86.7399 54.5453 88.6755 56.3271L88.6754 56.3268ZM83.2812 52.0172C83.279 52.0087 83.276 52.0005 83.2736 51.992C83.2918 51.9829 83.3112 51.9751 83.3296 51.9647L86.4434 50.1827C86.8795 49.9333 87.0304 49.3777 86.781 48.9419C86.5316 48.5061 85.9761 48.3549 85.5403 48.6043L82.4265 50.3864C82.4002 50.4034 82.3747 50.4215 82.3502 50.4409C82.3311 50.4228 82.3114 50.4061 82.2917 50.3888C82.6493 49.1886 83.5885 46.9299 85.8224 45.5349C87.7539 44.3287 90.2651 44.0114 93.2961 44.5884C92.5199 46.9327 89.8602 52.9708 83.2813 52.0172L83.2812 52.0172Z" fill="#0C0421"/>
</svg>
