<svg width="84" height="85" viewBox="0 0 84 85" fill="none" xmlns="http://www.w3.org/2000/svg">
<circle cx="32.4326" cy="32.7954" r="32" fill="#CAD4FA"/>
<path d="M82.9143 64.1659H80.3174C81.1722 63.3225 81.6522 62.1708 81.6492 60.9697C81.6486 59.828 81.2155 58.729 80.4373 57.8935C79.6588 57.0584 78.5931 56.549 77.4541 56.4683L56.7715 54.6704L60.5138 50.0225L73.1923 49.7295C74.715 49.7104 76.1117 48.8805 76.8564 47.5526C77.6013 46.2245 77.5808 44.6 76.8031 43.291C76.0254 41.9819 74.6085 41.1871 73.0858 41.2062H71.6341L60.2611 23.7198C59.2429 22.1425 57.4905 21.1936 55.6132 21.2027H43.6272C42.1578 21.2027 40.7487 21.7865 39.7096 22.8253C38.6708 23.8643 38.087 25.2735 38.087 26.7429V51.0479H28.4713C26.5449 51.0385 24.6943 51.7965 23.3281 53.1546C21.962 54.5125 21.1929 56.3586 21.1909 58.285C21.1887 60.2113 21.9539 62.0592 23.3173 63.4201C23.6225 63.7233 23.9572 63.9955 24.3161 64.2325H20.5339V63.0073C20.5311 62.0315 20.1979 61.0856 19.5884 60.3238C18.9789 59.5619 18.1293 59.0289 17.1778 58.8122C18.9652 57.655 20.1632 55.7794 20.4615 53.671C20.7597 51.5626 20.1291 49.4285 18.7329 47.8209C17.3365 46.2131 15.3119 45.29 13.1824 45.29C11.053 45.29 9.02844 46.2131 7.63196 47.8209C6.23584 49.4285 5.60518 51.5627 5.90343 53.671C6.20169 55.7794 7.3997 57.655 9.18705 58.8122C8.23563 59.0289 7.38614 59.5619 6.7765 60.3238C6.16687 61.0856 5.83375 62.0315 5.83098 63.0073V64.2325H5.08519C4.72478 64.2325 4.43262 64.5247 4.43262 64.8851V72.0766C4.43262 72.4371 4.72478 72.7292 5.08519 72.7292H8.1749V84.1427C8.1749 84.318 8.24537 84.4862 8.37078 84.6088C8.49591 84.7317 8.66543 84.7989 8.84079 84.7953H13.4487C13.8091 84.7953 14.1013 84.5031 14.1013 84.1427V72.6632H73.8983V84.0766C73.8983 84.437 74.1905 84.7292 74.5509 84.7292H79.1588C79.3342 84.7328 79.5037 84.6657 79.6288 84.5428C79.7542 84.4201 79.8247 84.252 79.8247 84.0766V72.6632H82.9144C83.2748 72.6632 83.567 72.371 83.567 72.0106V64.819C83.567 64.4586 83.2748 64.1664 82.9144 64.1664L82.9143 64.1659ZM43.6401 22.5081H55.6261C57.0628 22.5047 58.4026 23.2322 59.1819 24.4392L70.089 41.206H64.3623L57.5037 32.1365C57.3342 31.9103 57.0387 31.819 56.7713 31.9101C56.5019 31.9922 56.3179 32.2411 56.3185 32.5227V38.5556L50.0592 36.1984L47.0094 28.5274C46.877 28.1891 46.4952 28.0221 46.157 28.1545C45.8188 28.2868 45.6518 28.6686 45.7841 29.0068L48.9405 36.9974C49.0021 37.1717 49.1391 37.3087 49.3134 37.3703L56.9048 40.2336C57.7652 40.6093 58.3645 41.41 58.4819 42.3414C58.5995 43.2731 58.2177 44.1976 57.4775 44.775C56.7403 45.2775 55.8003 45.3776 54.9737 45.0413L52.9228 44.1757H52.8296L45.6117 41.1526C44.6106 40.7425 43.8085 39.9592 43.3743 38.9685L40.0049 31.3507C39.6084 30.4623 39.4039 29.5001 39.4056 28.5274V26.7428C39.4056 25.6197 39.8517 24.5423 40.6461 23.7482C41.4402 22.9539 42.5175 22.5077 43.6406 22.5077L43.6401 22.5081ZM59.6214 41.1529C59.2616 40.2062 58.5371 39.4435 57.6105 39.0354V34.4807L62.6979 41.2062L59.6214 41.1529ZM39.392 33.1622L42.1754 39.4482C42.7434 40.7467 43.7941 41.7735 45.1053 42.3115L51.5112 44.975L45.8112 51.0346H39.4053L39.392 33.1622ZM22.5186 58.2394C22.5249 56.6814 23.1531 55.1904 24.2632 54.0976C25.3715 52.9633 26.8992 52.3369 28.4849 52.3663L46.0913 52.4462C46.2722 52.4503 46.4465 52.3779 46.5708 52.2464L52.8035 45.5876L54.4682 46.2801C54.9482 46.4848 55.4648 46.5889 55.9864 46.5864C56.7905 46.5831 57.5751 46.337 58.2372 45.8805C59.3622 45.1409 60.0229 43.8704 59.9818 42.5245H73.1532C73.9056 42.5198 74.6312 42.8061 75.1775 43.3235C75.7482 43.8596 76.0817 44.6012 76.1042 45.3839C76.1266 46.1664 75.8364 46.9257 75.2977 47.4939C74.7588 48.0622 74.0158 48.3921 73.2332 48.4109L60.1683 48.7705C59.9768 48.7741 59.7968 48.8618 59.6755 49.0102L54.9877 54.8567C54.8387 55.0456 54.8029 55.3 54.8944 55.5225C54.9902 55.7451 55.1994 55.8982 55.4405 55.9221L77.3611 57.8265C78.1738 57.8742 78.9368 58.233 79.492 58.8278C80.0474 59.423 80.3526 60.209 80.3443 61.0227C80.3407 61.8717 80.0011 62.6847 79.3996 63.2837C78.798 63.8827 77.9837 64.219 77.1347 64.219H51.831C52.5734 63.4355 52.9866 62.3964 52.9849 61.3172C52.983 60.2376 52.5665 59.1999 51.8212 58.4189C51.076 57.6378 50.0591 57.1731 48.981 57.1207L38.7665 56.7611L37.741 56.6812L31.3484 55.8955C31.1759 55.8691 31.0002 55.9157 30.8637 56.0245C30.7269 56.1333 30.642 56.2942 30.6293 56.4681C30.5821 56.8247 30.8321 57.1523 31.1886 57.2006L37.5811 57.9863C37.9674 57.9863 38.3403 58.0529 38.7265 58.0662L48.9147 58.3991C49.9033 58.4802 50.782 59.0606 51.2448 59.9376C51.7079 60.8149 51.6909 61.8679 51.2001 62.7296C50.709 63.5914 49.812 64.143 48.8215 64.1924H28.445C26.8721 64.196 25.3628 63.5726 24.2505 62.4605C23.1385 61.3482 22.515 59.8389 22.5186 58.266L22.5186 58.2394ZM7.16304 52.5926C7.16304 50.9917 7.79923 49.4566 8.93149 48.3251C10.064 47.1937 11.5994 46.5586 13.2004 46.5597C14.8014 46.5609 16.3359 47.1982 17.4665 48.3315C18.5974 49.4646 19.2311 51.0006 19.2288 52.6015C19.2263 54.2024 18.5879 55.7365 17.454 56.8665C16.32 57.9963 14.7835 58.6292 13.1826 58.6256C11.5847 58.622 10.0537 57.985 8.92531 56.8538C7.79661 55.7229 7.16297 54.1906 7.16297 52.5927L7.16304 52.5926ZM7.16304 62.9407C7.16304 62.1447 7.47822 61.3811 8.03981 60.8171C8.60137 60.2531 9.36355 59.9345 10.1596 59.9309H16.2191C17.0151 59.9345 17.7773 60.253 18.3389 60.8171C18.9004 61.3812 19.2156 62.1447 19.2156 62.9407V64.1659H7.22966L7.16304 62.9407ZM12.7964 83.3968H9.49361V72.663H12.7964V83.3968ZM78.5058 83.3968H75.203V72.663H78.5058V83.3968ZM82.2614 71.4108H5.73587V65.4711H82.2614V71.4108Z" fill="#0C0421"/>
<path d="M48.5129 19.4716C50.4589 19.4716 52.3257 18.6986 53.7019 17.3225C55.078 15.9463 55.851 14.0796 55.851 12.1335C55.851 10.1874 55.078 8.32074 53.7019 6.94457C52.3257 5.56841 50.459 4.79541 48.5129 4.79541C46.5668 4.79541 44.7001 5.56841 43.324 6.94457C41.9478 8.32074 41.1748 10.1874 41.1748 12.1335C41.1748 14.0796 41.9478 15.9463 43.324 17.3225C44.7001 18.6986 46.5668 19.4716 48.5129 19.4716ZM48.5129 6.15389C50.113 6.15389 51.6476 6.78953 52.7788 7.92099C53.9103 9.05219 54.5459 10.5867 54.5459 12.1869C54.5459 13.787 53.9102 15.3215 52.7788 16.4527C51.6476 17.5842 50.113 18.2198 48.5129 18.2198C46.9128 18.2198 45.3782 17.5842 44.247 16.4527C43.1156 15.3215 42.4799 13.787 42.4799 12.1869C42.4835 10.5879 43.1203 9.05552 44.251 7.9249C45.3816 6.79428 46.9139 6.15751 48.5129 6.15389Z" fill="#0C0421"/>
</svg>
