<svg width="272" height="88" viewBox="0 0 272 88" fill="none" xmlns="http://www.w3.org/2000/svg">
<path d="M38.8979 20.4277H38.2625V32.5944H38.8979V20.4277Z" fill="#0C0421"/>
<path d="M38.8979 11.6107H38.2625V21.262H38.8979V11.6107Z" fill="#0C0421"/>
<path d="M38.5802 12.4049C39.2748 12.4049 39.8379 11.8419 39.8379 11.1472C39.8379 10.4526 39.2748 9.88953 38.5802 9.88953C37.8856 9.88953 37.3225 10.4526 37.3225 11.1472C37.3225 11.8419 37.8856 12.4049 38.5802 12.4049Z" fill="#0C0421"/>
<path d="M43.1269 12.6445L38.2954 20.9994L38.8455 21.3175L43.677 12.9626L43.1269 12.6445Z" fill="#0C0421"/>
<path d="M43.611 13.6626C44.3056 13.6626 44.8687 13.0995 44.8687 12.4049C44.8687 11.7103 44.3056 11.1472 43.611 11.1472C42.9164 11.1472 42.3533 11.7103 42.3533 12.4049C42.3533 13.0995 42.9164 13.6626 43.611 13.6626Z" fill="#0C0421"/>
<path d="M34.0462 12.6433L33.4958 12.961L38.3215 21.3192L38.8718 21.0015L34.0462 12.6433Z" fill="#0C0421"/>
<path d="M33.536 13.6626C34.2306 13.6626 34.7937 13.0995 34.7937 12.4049C34.7937 11.7103 34.2306 11.1472 33.536 11.1472C32.8414 11.1472 32.2783 11.7103 32.2783 12.4049C32.2783 13.0995 32.8414 13.6626 33.536 13.6626Z" fill="#0C0421"/>
<path d="M38.8979 65.3082H38.2625V77.4749H38.8979V65.3082Z" fill="#0C0421"/>
<path d="M38.8979 76.6408H38.2625V86.2921H38.8979V76.6408Z" fill="#0C0421"/>
<path d="M38.5802 88C39.2748 88 39.8379 87.4369 39.8379 86.7423C39.8379 86.0477 39.2748 85.4846 38.5802 85.4846C37.8856 85.4846 37.3225 86.0477 37.3225 86.7423C37.3225 87.4369 37.8856 88 38.5802 88Z" fill="#0C0421"/>
<path d="M38.3295 76.5847L33.498 84.9396L34.0482 85.2577L38.8796 76.9028L38.3295 76.5847Z" fill="#0C0421"/>
<path d="M33.536 86.7422C34.2306 86.7422 34.7937 86.1791 34.7937 85.4845C34.7937 84.7899 34.2306 84.2268 33.536 84.2268C32.8414 84.2268 32.2783 84.7899 32.2783 85.4845C32.2783 86.1791 32.8414 86.7422 33.536 86.7422Z" fill="#0C0421"/>
<path d="M38.8389 76.5753L38.2886 76.893L43.1142 85.2513L43.6645 84.9335L38.8389 76.5753Z" fill="#0C0421"/>
<path d="M43.611 86.7422C44.3056 86.7422 44.8687 86.1791 44.8687 85.4845C44.8687 84.7899 44.3056 84.2268 43.611 84.2268C42.9164 84.2268 42.3533 84.7899 42.3533 85.4845C42.3533 86.1791 42.9164 86.7422 43.611 86.7422Z" fill="#0C0421"/>
<path d="M28.4909 22.8861L27.9038 23.1293L32.5598 34.3698L33.1469 34.1266L28.4909 22.8861Z" fill="#0C0421"/>
<path d="M25.1088 14.7341L24.5217 14.9774L28.2167 23.8934L28.8037 23.6501L25.1088 14.7341Z" fill="#0C0421"/>
<path d="M24.6395 15.7015C25.3342 15.7015 25.8973 15.1384 25.8973 14.4437C25.8973 13.7491 25.3342 13.186 24.6395 13.186C23.9449 13.186 23.3818 13.7491 23.3818 14.4437C23.3818 15.1384 23.9449 15.7015 24.6395 15.7015Z" fill="#0C0421"/>
<path d="M28.7699 23.7244L28.1477 23.645L29.4054 14.0864L30.0277 14.1658L28.7699 23.7244Z" fill="#0C0421"/>
<path d="M29.7763 14.9336C30.4709 14.9336 31.034 14.3705 31.034 13.6759C31.034 12.9813 30.4709 12.4182 29.7763 12.4182C29.0816 12.4182 28.5186 12.9813 28.5186 13.6759C28.5186 14.3705 29.0816 14.9336 29.7763 14.9336Z" fill="#0C0421"/>
<path d="M21.0414 17.5561L20.6545 18.0603L28.3114 23.9356L28.6983 23.4315L21.0414 17.5561Z" fill="#0C0421"/>
<path d="M20.4691 18.7864C21.1638 18.7864 21.7268 18.2233 21.7268 17.5286C21.7268 16.834 21.1638 16.2709 20.4691 16.2709C19.7745 16.2709 19.2114 16.834 19.2114 17.5286C19.2114 18.2233 19.7745 18.7864 20.4691 18.7864Z" fill="#0C0421"/>
<path d="M19.3263 29.2563L18.877 29.7057L27.4801 38.3088L27.9295 37.8595L19.3263 29.2563Z" fill="#0C0421"/>
<path d="M13.0951 23.0231L12.6458 23.4724L19.4702 30.2969L19.9196 29.8475L13.0951 23.0231Z" fill="#0C0421"/>
<path d="M12.5521 24.1745C13.2468 24.1745 13.8099 23.6114 13.8099 22.9168C13.8099 22.2222 13.2468 21.6591 12.5521 21.6591C11.8575 21.6591 11.2944 22.2222 11.2944 22.9168C11.2944 23.6114 11.8575 24.1745 12.5521 24.1745Z" fill="#0C0421"/>
<path d="M17.4383 20.6001L16.8245 20.7646L19.3224 30.087L19.9362 29.9225L17.4383 20.6001Z" fill="#0C0421"/>
<path d="M17.0004 21.5135C17.695 21.5135 18.2581 20.9504 18.2581 20.2558C18.2581 19.5611 17.695 18.998 17.0004 18.998C16.3058 18.998 15.7427 19.5611 15.7427 20.2558C15.7427 20.9504 16.3058 21.5135 17.0004 21.5135Z" fill="#0C0421"/>
<path d="M10.4134 27.1853L10.2488 27.7991L19.5708 30.2986L19.7353 29.6848L10.4134 27.1853Z" fill="#0C0421"/>
<path d="M9.87783 28.6362C10.5724 28.6362 11.1355 28.0731 11.1355 27.3785C11.1355 26.6839 10.5724 26.1208 9.87783 26.1208C9.18321 26.1208 8.62012 26.6839 8.62012 27.3785C8.62012 28.0731 9.18321 28.6362 9.87783 28.6362Z" fill="#0C0421"/>
<path d="M14.0159 38.269L13.7727 38.8561L25.0133 43.5121L25.2565 42.925L14.0159 38.269Z" fill="#0C0421"/>
<path d="M5.87258 34.886L5.62939 35.4731L14.546 39.1665L14.7892 38.5794L5.87258 34.886Z" fill="#0C0421"/>
<path d="M5.32363 36.275C6.01824 36.275 6.58134 35.7119 6.58134 35.0173C6.58134 34.3227 6.01824 33.7596 5.32363 33.7596C4.62901 33.7596 4.06592 34.3227 4.06592 35.0173C4.06592 35.7119 4.62901 36.275 5.32363 36.275Z" fill="#0C0421"/>
<path d="M8.95362 31.0037L8.44946 31.3906L14.3248 39.0474L14.8289 38.6606L8.95362 31.0037Z" fill="#0C0421"/>
<path d="M8.42177 32.0913C9.11639 32.0913 9.67948 31.5283 9.67948 30.8336C9.67948 30.139 9.11639 29.5759 8.42177 29.5759C7.72716 29.5759 7.16406 30.139 7.16406 30.8336C7.16406 31.5283 7.72716 32.0913 8.42177 32.0913Z" fill="#0C0421"/>
<path d="M5.05893 40.3923L4.97949 39.77L14.5381 38.5123L14.6175 39.1346L5.05893 40.3923Z" fill="#0C0421"/>
<path d="M4.56899 41.3985C5.2636 41.3985 5.8267 40.8354 5.8267 40.1408C5.8267 39.4462 5.2636 38.8831 4.56899 38.8831C3.87438 38.8831 3.31128 39.4462 3.31128 40.1408C3.31128 40.8354 3.87438 41.3985 4.56899 41.3985Z" fill="#0C0421"/>
<path d="M23.4746 48.6271H11.3079V49.2625H23.4746V48.6271Z" fill="#0C0421"/>
<path d="M12.1549 48.6271H2.50366V49.2625H12.1549V48.6271Z" fill="#0C0421"/>
<path d="M2.04043 50.2026C2.73504 50.2026 3.29814 49.6395 3.29814 48.9448C3.29814 48.2502 2.73504 47.6871 2.04043 47.6871C1.34581 47.6871 0.782715 48.2502 0.782715 48.9448C0.782715 49.6395 1.34581 50.2026 2.04043 50.2026Z" fill="#0C0421"/>
<path d="M3.86364 43.8612L3.5459 44.4116L11.9041 49.2372L12.2219 48.6869L3.86364 43.8612Z" fill="#0C0421"/>
<path d="M3.29824 45.1715C3.99285 45.1715 4.55595 44.6084 4.55595 43.9138C4.55595 43.2192 3.99285 42.6561 3.29824 42.6561C2.60362 42.6561 2.04053 43.2192 2.04053 43.9138C2.04053 44.6084 2.60362 45.1715 3.29824 45.1715Z" fill="#0C0421"/>
<path d="M11.8961 48.6505L3.54126 53.482L3.85938 54.0321L12.2143 49.2006L11.8961 48.6505Z" fill="#0C0421"/>
<path d="M3.29824 55.2466C3.99285 55.2466 4.55595 54.6835 4.55595 53.9888C4.55595 53.2942 3.99285 52.7311 3.29824 52.7311C2.60362 52.7311 2.04053 53.2942 2.04053 53.9888C2.04053 54.6835 2.60362 55.2466 3.29824 55.2466Z" fill="#0C0421"/>
<path d="M25.0068 54.3895L13.7629 59.0376L14.0057 59.6249L25.2495 54.9767L25.0068 54.3895Z" fill="#0C0421"/>
<path d="M14.5439 58.729L5.62476 62.4161L5.86753 63.0034L14.7867 59.3163L14.5439 58.729Z" fill="#0C0421"/>
<path d="M5.32363 64.1432C6.01824 64.1432 6.58134 63.5801 6.58134 62.8855C6.58134 62.1909 6.01824 61.6278 5.32363 61.6278C4.62901 61.6278 4.06592 62.1909 4.06592 62.8855C4.06592 63.5801 4.62901 64.1432 5.32363 64.1432Z" fill="#0C0421"/>
<path d="M14.5381 59.3771L4.97949 58.1194L5.05893 57.4971L14.6175 58.7548L14.5381 59.3771Z" fill="#0C0421"/>
<path d="M4.56899 59.0063C5.2636 59.0063 5.8267 58.4432 5.8267 57.7486C5.8267 57.054 5.2636 56.4909 4.56899 56.4909C3.87438 56.4909 3.31128 57.054 3.31128 57.7486C3.31128 58.4432 3.87438 59.0063 4.56899 59.0063Z" fill="#0C0421"/>
<path d="M14.327 58.841L8.45435 66.4999L8.95864 66.8866L14.8313 59.2277L14.327 58.841Z" fill="#0C0421"/>
<path d="M8.42177 68.3135C9.11639 68.3135 9.67948 67.7504 9.67948 67.0557C9.67948 66.3611 9.11639 65.798 8.42177 65.798C7.72716 65.798 7.16406 66.3611 7.16406 67.0557C7.16406 67.7504 7.72716 68.3135 8.42177 68.3135Z" fill="#0C0421"/>
<path d="M27.4894 59.5868L18.8862 68.1899L19.3356 68.6393L27.9387 60.0361L27.4894 59.5868Z" fill="#0C0421"/>
<path d="M19.4773 67.5967L12.6528 74.4212L13.1022 74.8706L19.9267 68.0461L19.4773 67.5967Z" fill="#0C0421"/>
<path d="M12.5521 76.2305C13.2468 76.2305 13.8099 75.6674 13.8099 74.9727C13.8099 74.2781 13.2468 73.715 12.5521 73.715C11.8575 73.715 11.2944 74.2781 11.2944 74.9727C11.2944 75.6674 11.8575 76.2305 12.5521 76.2305Z" fill="#0C0421"/>
<path d="M19.5651 67.6041L10.2432 70.1036L10.4077 70.7174L19.7297 68.2179L19.5651 67.6041Z" fill="#0C0421"/>
<path d="M9.87783 71.7821C10.5724 71.7821 11.1355 71.219 11.1355 70.5244C11.1355 69.8298 10.5724 69.2667 9.87783 69.2667C9.18321 69.2667 8.62012 69.8298 8.62012 70.5244C8.62012 71.219 9.18321 71.7821 9.87783 71.7821Z" fill="#0C0421"/>
<path d="M17.5832 77.3293L16.6697 77.0777L19.1586 67.7574L20.0721 68.009L17.5832 77.3293Z" fill="#0C0421"/>
<path d="M17.0006 78.9047C17.6952 78.9047 18.2583 78.3416 18.2583 77.647C18.2583 76.9524 17.6952 76.3893 17.0006 76.3893C16.306 76.3893 15.7429 76.9524 15.7429 77.647C15.7429 78.3416 16.306 78.9047 17.0006 78.9047Z" fill="#0C0421"/>
<path d="M32.5654 63.5249L27.9172 74.7687L28.5045 75.0115L33.1527 63.7677L32.5654 63.5249Z" fill="#0C0421"/>
<path d="M28.2206 74.0131L24.5334 82.9323L25.1207 83.175L28.8079 74.2558L28.2206 74.0131Z" fill="#0C0421"/>
<path d="M24.6395 84.7168C25.3342 84.7168 25.8973 84.1537 25.8973 83.4591C25.8973 82.7645 25.3342 82.2014 24.6395 82.2014C23.9449 82.2014 23.3818 82.7645 23.3818 83.4591C23.3818 84.1537 23.9449 84.7168 24.6395 84.7168Z" fill="#0C0421"/>
<path d="M28.2947 73.9754L20.6357 79.848L21.0224 80.3523L28.6813 74.4797L28.2947 73.9754Z" fill="#0C0421"/>
<path d="M20.4691 81.6188C21.1638 81.6188 21.7268 81.0557 21.7268 80.361C21.7268 79.6664 21.1638 79.1033 20.4691 79.1033C19.7745 79.1033 19.2114 79.6664 19.2114 80.361C19.2114 81.0557 19.7745 81.6188 20.4691 81.6188Z" fill="#0C0421"/>
<path d="M29.4057 83.8033L28.1479 74.2447L28.7702 74.1653L30.0279 83.7239L29.4057 83.8033Z" fill="#0C0421"/>
<path d="M29.7763 85.4712C30.4709 85.4712 31.034 84.9081 31.034 84.2135C31.034 83.5188 30.4709 82.9557 29.7763 82.9557C29.0816 82.9557 28.5186 83.5188 28.5186 84.2135C28.5186 84.9081 29.0816 85.4712 29.7763 85.4712Z" fill="#0C0421"/>
<path d="M223.662 66.5528C222.683 66.2747 221.875 65.8776 221.253 65.3612C220.631 64.8449 220.326 64.2492 220.326 63.5872V60.6084H220.829C221.147 62.4619 221.756 63.799 222.669 64.6199C223.583 65.4407 224.827 65.8511 226.416 65.8511C227.422 65.8511 228.27 65.5996 228.985 65.0965C229.699 64.5934 230.057 63.905 230.057 63.0047C230.057 62.2236 229.819 61.5484 229.329 60.9791C228.852 60.4098 228.071 59.8008 226.999 59.1654L223.583 57.1398C222.391 56.4381 221.557 55.7232 221.068 54.9951C220.578 54.2669 220.326 53.3931 220.326 52.3473C220.326 50.9174 220.829 49.7789 221.809 48.9183C222.802 48.0578 224.099 47.6209 225.714 47.6209C226.654 47.6209 227.594 47.7533 228.521 48.0181C229.448 48.2829 230.216 48.68 230.812 49.1831C231.407 49.6862 231.712 50.282 231.712 50.9439V53.9227H231.209C230.891 52.0692 230.295 50.7453 229.421 49.9377C228.534 49.1302 227.303 48.733 225.714 48.733C224.867 48.733 224.113 48.9978 223.464 49.5141C222.815 50.0304 222.497 50.7056 222.497 51.5397C222.497 52.2943 222.736 52.9298 223.212 53.4329C223.689 53.9359 224.483 54.5185 225.582 55.1804L228.998 57.206C230.255 57.9606 231.142 58.6755 231.672 59.3242C232.188 59.973 232.453 60.7938 232.453 61.7999C232.453 63.3622 231.937 64.6066 230.891 65.5334C229.858 66.4733 228.442 66.9367 226.668 66.9367C225.648 66.9367 224.642 66.8043 223.662 66.5263V66.5528Z" fill="#0C0421"/>
<path d="M239.364 51.4734C239.364 50.5334 239.232 49.8317 238.98 49.3684C238.729 48.905 238.199 48.6932 237.418 48.6932H236.862V48.1371H244.09C245.864 48.1371 247.466 48.5211 248.896 49.2757C250.326 50.0303 251.041 51.5131 251.041 53.6976C251.041 55.1406 250.67 56.2527 249.929 57.0338C249.187 57.8149 248.353 58.3312 247.44 58.596C246.526 58.8608 245.679 58.9799 244.924 58.9799H241.866V66.4865H239.364V51.4734ZM245.838 57.5501C246.5 57.2456 247.069 56.7558 247.546 56.0938C248.022 55.4319 248.261 54.5846 248.261 53.5652C248.261 52.5458 248.022 51.6985 247.546 51.0365C247.069 50.3745 246.5 49.8847 245.838 49.5802C245.176 49.2757 244.54 49.1168 243.945 49.1168C243.296 49.1168 242.594 49.2095 241.853 49.3949V57.7355C242.594 57.9208 243.283 58.0135 243.945 58.0135C244.54 58.0135 245.163 57.8546 245.838 57.5501Z" fill="#0C0421"/>
<path d="M267.418 65.8907C266.544 65.4009 265.855 64.4477 265.326 63.0178L264.624 61.2041H256.84L254.615 66.4865H253.358L261.142 48.1371H261.976L268.093 63.0178C268.556 64.0902 268.993 64.8316 269.403 65.2288C269.814 65.6259 270.396 65.8642 271.151 65.9437V66.4997C270.82 66.5924 270.449 66.6321 270.039 66.6321C269.152 66.6321 268.265 66.3806 267.404 65.8907H267.418ZM257.263 60.092H264.068L260.732 52.0294L257.263 60.092Z" fill="#0C0421"/>
<path d="M67.9445 38.2742C65.9586 36.9768 64.4891 35.216 63.4961 32.9918C62.5165 30.7677 62.0266 28.2787 62.0266 25.5118C62.0266 22.7448 62.5165 20.2559 63.4961 18.0317C64.4758 15.8075 65.9586 14.0467 67.9445 12.7493C69.9303 11.4519 72.3531 10.8032 75.2392 10.8032C79.6478 10.8032 82.5472 11.5048 83.9505 12.9082C84.6257 13.5834 85.0493 14.4174 85.2082 15.3971C85.3671 16.3768 85.4465 18.1508 85.4465 20.706H84.2418C84.0829 18.2303 83.3018 16.3503 81.8984 15.0926C80.4951 13.8349 78.6814 13.1994 76.4307 13.1994C73.5446 13.1994 71.3734 14.338 69.9171 16.6283C68.4608 18.9055 67.7194 21.871 67.7194 25.5118C67.7194 29.1525 68.4476 32.118 69.9171 34.3952C71.3734 36.6723 73.5446 37.8108 76.4307 37.8108C78.4695 37.8108 80.1509 37.4269 81.4748 36.6458C82.7987 35.8647 84.0167 34.66 85.142 33.0183L86.3468 33.9186C85.0229 36.156 83.4607 37.7711 81.6601 38.7508C79.8596 39.7305 77.7149 40.2204 75.2392 40.2204C72.3531 40.2204 69.9303 39.5716 67.9445 38.2742Z" fill="#0C0421"/>
<path d="M95.4686 39.4126C94.1447 38.8698 93.0194 37.9828 92.0794 36.7383C91.1394 35.4939 90.6628 33.8522 90.6628 31.8134C90.6628 28.7684 92.0794 26.6105 94.8993 25.3263C97.7193 24.0421 101.413 23.4066 105.98 23.4066H107.781C107.781 19.4879 107.238 16.8003 106.166 15.3573C105.08 13.9142 103.518 13.1993 101.479 13.1993C99.6786 13.1993 98.2356 13.5832 97.15 14.3379C96.0644 15.0925 95.3098 16.4164 94.8729 18.2963H92.1721C92.1721 16.9327 92.2515 15.8603 92.4104 15.0792C92.5693 14.2981 92.9929 13.57 93.6681 12.8816C94.383 12.1667 95.5745 11.6371 97.2427 11.2929C98.8975 10.9487 100.711 10.7766 102.671 10.7766C105.914 10.7766 108.469 11.6503 110.363 13.3846C112.243 15.1322 113.182 18.4552 113.182 23.3801V39.5847H110.177L108.072 36.884H107.768C107.053 37.8107 105.98 38.5918 104.59 39.2273C103.187 39.8628 101.453 40.1937 99.3609 40.1937C98.0767 40.1937 96.7793 39.929 95.4554 39.3862L95.4686 39.4126ZM105.371 36.5662C106.245 35.9308 107.053 35.0437 107.768 33.9184V25.8161H105.967C103.002 25.8161 100.658 26.3722 98.9373 27.471C97.2162 28.5698 96.3556 30.0261 96.3556 31.8267C96.3556 33.6272 96.9117 35.0835 98.0105 36.0632C99.1094 37.0428 100.46 37.5327 102.062 37.5327C103.386 37.5327 104.484 37.215 105.358 36.5662H105.371Z" fill="#0C0421"/>
<path d="M121.775 7.20205C121.775 5.16323 121.497 3.65398 120.941 2.67429C120.384 1.6946 119.259 1.20475 117.578 1.20475H116.373V0H121.775C123.257 0 124.369 0.185347 125.111 0.56928C125.852 0.953212 126.382 1.64164 126.7 2.63457C127.017 3.64074 127.176 5.14999 127.176 7.20205V39.6245H121.775V7.20205Z" fill="#0C0421"/>
<path d="M136.96 18.6141C136.96 16.5753 136.682 15.0661 136.126 14.0864C135.57 13.1067 134.444 12.6168 132.763 12.6168H131.558V11.4121H136.96C138.442 11.4121 139.568 11.6107 140.349 12.0078C141.13 12.405 141.699 13.014 142.057 13.8084H142.361C143.195 12.9743 144.294 12.2594 145.631 11.6769C146.968 11.0944 148.478 10.8031 150.159 10.8031C151.84 10.8031 153.283 11.1076 154.488 11.7298C155.693 12.3521 156.646 13.4377 157.374 14.9999C158.42 13.676 159.744 12.6433 161.372 11.9019C162.988 11.1605 164.669 10.7899 166.39 10.7899C168.945 10.7899 170.997 11.5974 172.52 13.1861C174.042 14.7881 174.797 17.5947 174.797 21.5929V39.6113H174.744C171.792 39.6113 169.395 37.215 169.395 34.2627V21.5929C169.395 18.7068 168.998 16.6415 168.191 15.3838C167.383 14.1261 166.191 13.4906 164.59 13.4906C163.464 13.4906 162.286 13.901 161.042 14.7219C159.797 15.5427 158.884 16.4297 158.275 17.3961C158.473 17.9919 158.579 19.3952 158.579 21.5929V39.6113H158.526C155.574 39.6113 153.177 37.215 153.177 34.2627V21.5929C153.177 18.7068 152.78 16.6415 151.973 15.3838C151.178 14.1261 149.974 13.4906 148.372 13.4906C146.253 13.4906 144.254 14.5498 142.374 16.668V39.6245H142.321C139.369 39.6245 136.973 37.2283 136.973 34.276V18.6141H136.96Z" fill="#0C0421"/>
<path d="M186.01 39.4126C184.686 38.8698 183.561 37.9828 182.621 36.7383C181.681 35.4939 181.205 33.8522 181.205 31.8134C181.205 28.7684 182.621 26.6105 185.441 25.3263C188.261 24.0421 191.955 23.4066 196.522 23.4066H198.323C198.323 19.4879 197.78 16.8003 196.708 15.3573C195.635 13.9142 194.06 13.1993 192.021 13.1993C190.22 13.1993 188.777 13.5832 187.692 14.3379C186.606 15.0925 185.852 16.4164 185.415 18.2963H182.714C182.714 16.9327 182.793 15.8603 182.952 15.0792C183.111 14.2981 183.535 13.57 184.21 12.8816C184.925 12.1667 186.116 11.6371 187.784 11.2929C189.439 10.9487 191.253 10.7766 193.212 10.7766C196.456 10.7766 199.011 11.6503 200.904 13.3846C202.784 15.1322 203.724 18.4552 203.724 23.3801V39.5847H200.719L198.614 36.884H198.309C197.595 37.8107 196.522 38.5918 195.132 39.2273C193.729 39.8628 191.994 40.1937 189.903 40.1937C188.618 40.1937 187.321 39.929 185.997 39.3862L186.01 39.4126ZM195.913 36.5662C196.787 35.9308 197.595 35.0437 198.309 33.9184V25.8161H196.509C193.543 25.8161 191.2 26.3722 189.479 27.471C187.758 28.5698 186.897 30.0261 186.897 31.8267C186.897 33.6272 187.453 35.0835 188.552 36.0632C189.651 37.0428 191.001 37.5327 192.603 37.5327C193.927 37.5327 195.026 37.215 195.9 36.5662H195.913Z" fill="#0C0421"/>
<path d="M212.555 18.6142C212.555 16.5754 212.277 15.0661 211.721 14.0864C211.165 13.1068 210.039 12.6169 208.358 12.6169H207.762V11.4122H212.568C214.09 11.4122 215.242 11.624 216.023 12.0476C216.804 12.4713 217.347 13.1597 217.678 14.1129H217.983C218.698 13.1862 219.677 12.4183 220.895 11.7696C222.113 11.1341 223.543 10.8032 225.185 10.8032C226.826 10.8032 227.991 11.1077 228.786 11.7034C229.461 12.2197 230.163 13.12 230.891 14.4042L228.495 16.2047C228.058 15.6089 227.409 15.1588 226.575 14.8543C225.741 14.5498 224.774 14.4042 223.689 14.4042C222.484 14.4042 221.385 14.669 220.392 15.2118C219.386 15.7546 218.592 16.4827 217.996 17.4095V39.6246C215.017 39.6246 212.594 37.2018 212.594 34.2231V18.6142H212.555Z" fill="#0C0421"/>
<path d="M236.809 18.614C236.809 16.5752 236.531 15.066 235.975 14.0863C235.419 13.1066 234.293 12.6167 232.612 12.6167H231.407V11.412H236.809C238.292 11.412 239.404 11.5973 240.145 11.9813C240.886 12.3652 241.416 13.0536 241.734 14.0466C242.051 15.0527 242.21 16.562 242.21 18.614V39.6244C239.232 39.6244 236.809 37.2017 236.809 34.2229V18.614ZM236.716 6.65917C236.054 5.90454 235.723 5.00428 235.723 3.9584C235.723 3.12434 235.975 2.46238 236.478 1.97254C236.981 1.49593 237.643 1.25763 238.49 1.25763C239.404 1.25763 240.198 1.64156 240.86 2.39619C241.522 3.15082 241.853 4.05107 241.853 5.09696C241.853 5.93102 241.601 6.59297 241.098 7.08282C240.595 7.55942 239.933 7.79773 239.086 7.79773C238.159 7.79773 237.378 7.41379 236.716 6.65917Z" fill="#0C0421"/>
<path d="M253.503 39.4126C252.179 38.8698 251.054 37.9828 250.114 36.7383C249.174 35.4939 248.697 33.8522 248.697 31.8134C248.697 28.7684 250.114 26.6105 252.934 25.3263C255.754 24.0421 259.447 23.4066 264.015 23.4066H265.815C265.815 19.4879 265.273 16.8003 264.2 15.3573C263.115 13.9142 261.566 13.1993 259.514 13.1993C257.713 13.1993 256.27 13.5832 255.198 14.3379C254.112 15.0925 253.357 16.4164 252.921 18.2963H250.22C250.22 16.9327 250.299 15.8603 250.458 15.0792C250.617 14.2981 251.041 13.57 251.716 12.8816C252.431 12.1667 253.622 11.6371 255.29 11.2929C256.945 10.9487 258.759 10.7766 260.718 10.7766C263.962 10.7766 266.517 11.6503 268.397 13.3846C270.277 15.1322 271.217 18.4552 271.217 23.3801V39.5847H268.212L266.107 36.884H265.802C265.087 37.8107 264.015 38.5918 262.625 39.2273C261.221 39.8628 259.487 40.1937 257.395 40.1937C256.111 40.1937 254.814 39.929 253.49 39.3862L253.503 39.4126ZM263.406 36.5662C264.293 35.9308 265.087 35.0437 265.802 33.9184V25.8161H264.002C261.036 25.8161 258.693 26.3722 256.972 27.471C255.251 28.5698 254.39 30.0261 254.39 31.8267C254.39 33.6272 254.946 35.0835 256.045 36.0632C257.144 37.0428 258.494 37.5327 260.096 37.5327C261.42 37.5327 262.519 37.215 263.393 36.5662H263.406Z" fill="#0C0421"/>
<path d="M99.1226 56.4382C96.2364 56.4382 93.5357 55.3129 91.4969 53.2741L91.0864 52.8637C88.9814 50.7586 86.2012 49.6068 83.2357 49.6068H40.6324C40.553 48.7595 39.838 48.0976 38.9643 48.0976C38.0375 48.0976 37.2961 48.8522 37.2961 49.7657C37.2961 50.6792 38.0508 51.4338 38.9643 51.4338C39.838 51.4338 40.553 50.7719 40.6324 49.9246H83.2225C86.1086 49.9246 88.8093 51.0499 90.8481 53.0887L91.2586 53.4991C93.3636 55.6041 96.1438 56.7559 99.1093 56.7559H210.979V56.4382H99.1226Z" fill="#0C0421"/>
<path d="M211.324 57.087H99.1225C96.0643 57.087 93.1914 55.8955 91.0334 53.7375L90.623 53.3271C88.6504 51.3545 86.0158 50.2689 83.2356 50.2689H40.9103C40.6853 51.1559 39.9042 51.7781 38.9642 51.7781C37.8653 51.7781 36.9651 50.8778 36.9651 49.779C36.9651 48.6802 37.8653 47.7799 38.9642 47.7799C39.9042 47.7799 40.6853 48.4154 40.9103 49.2892H83.2224C86.2806 49.2892 89.1535 50.4807 91.3114 52.6386L91.7218 53.0491C93.6945 55.0217 96.329 56.1073 99.1092 56.1073H211.31V57.1002L211.324 57.087ZM38.9774 48.4286C38.236 48.4286 37.6403 49.0376 37.6403 49.7658C37.6403 50.4939 38.2493 51.1029 38.9774 51.1029C39.6791 51.1029 40.2484 50.5866 40.3146 49.8849V49.6201C40.2484 48.9317 39.6791 48.4021 38.9774 48.4021V48.4286Z" fill="#0C0421"/>
</svg>
