<svg width="96" height="89" viewBox="0 0 96 89" fill="none" xmlns="http://www.w3.org/2000/svg">
<circle cx="32.6521" cy="32.696" r="32" fill="#CAD4FA"/>
<path d="M30.844 8.69604C30.0242 8.69604 29.2377 9.02154 28.6583 9.60131C28.0785 10.1811 27.7527 10.9675 27.7527 11.7874C27.7527 12.6072 28.0785 13.3933 28.6583 13.9731C29.2377 14.5529 30.0242 14.8787 30.844 14.8787C31.6638 14.8787 32.4502 14.5529 33.0297 13.9731C33.6095 13.3933 33.9353 12.6072 33.9353 11.7874C33.9344 10.9679 33.6083 10.182 33.0288 9.60255C32.4493 9.02278 31.6635 8.69698 30.844 8.69604ZM30.844 13.0602C30.5064 13.0602 30.1827 12.926 29.9439 12.6874C29.705 12.4486 29.5711 12.125 29.5711 11.7873C29.5711 11.4497 29.705 11.126 29.9439 10.8872C30.1827 10.6483 30.5063 10.5144 30.844 10.5144C31.1816 10.5144 31.5053 10.6483 31.7441 10.8872C31.983 11.126 32.1169 11.4497 32.1169 11.7873C32.1166 12.1246 31.9824 12.4483 31.7435 12.6868C31.505 12.9256 31.1816 13.0599 30.844 13.0602Z" fill="#0C0421"/>
<path d="M78.4861 22.1523C78.4861 22.9721 78.8119 23.7583 79.3917 24.3381C79.9711 24.9179 80.7576 25.2437 81.5774 25.2437C82.3972 25.2437 83.1837 24.9179 83.7631 24.3381C84.3429 23.7583 84.6687 22.9722 84.6687 22.1523C84.6687 21.3325 84.3429 20.5461 83.7631 19.9663C83.1837 19.3865 82.3972 19.061 81.5774 19.061C80.7579 19.0619 79.9721 19.3877 79.3926 19.9675C78.8131 20.547 78.487 21.3329 78.4861 22.1523ZM81.5774 20.8795C81.915 20.8795 82.2387 21.0134 82.4775 21.2523C82.7164 21.4911 82.8503 21.8148 82.8503 22.1524C82.8503 22.4901 82.7164 22.8137 82.4775 23.0525C82.2387 23.2911 81.915 23.4253 81.5774 23.4253C81.2397 23.4253 80.9161 23.2911 80.6773 23.0525C80.4384 22.8137 80.3045 22.4901 80.3045 22.1524C80.3048 21.8148 80.439 21.4914 80.6779 21.2526C80.9164 21.0141 81.2398 20.8798 81.5774 20.8795Z" fill="#0C0421"/>
<path d="M17.9231 32.3519C18.1643 32.3526 18.3955 32.2565 18.5659 32.0859L20.6185 30.0335C20.971 29.678 20.9698 29.1042 20.6158 28.7503C20.2618 28.3966 19.6881 28.3951 19.3326 28.7476L17.2803 30.7999C17.0202 31.06 16.9423 31.4509 17.0833 31.7907C17.2239 32.1304 17.5554 32.3519 17.9231 32.3519Z" fill="#0C0421"/>
<path d="M12.2794 37.9963C12.5206 37.9966 12.7519 37.9008 12.9222 37.7299L14.9746 35.6775C15.3219 35.3214 15.3185 34.7519 14.9667 34.4001C14.6148 34.0479 14.0453 34.0443 13.6889 34.3919L11.6366 36.4439C11.3765 36.704 11.2986 37.0952 11.4393 37.4349C11.5799 37.7747 11.9115 37.9963 12.2794 37.9963Z" fill="#0C0421"/>
<path d="M13.7171 32.0571C14.0726 32.4095 14.6463 32.4083 15.0003 32.0543C15.3539 31.7003 15.3555 31.1269 15.003 30.7714L12.9503 28.7191C12.78 28.5472 12.5484 28.4506 12.3066 28.45C12.0647 28.4493 11.8326 28.5451 11.6617 28.7164C11.4907 28.8873 11.395 29.1194 11.3953 29.3613C11.3959 29.6031 11.4929 29.8347 11.6644 30.005L13.7171 32.0571Z" fill="#0C0421"/>
<path d="M18.5948 34.3621C18.4245 34.1903 18.193 34.0936 17.9511 34.093C17.7093 34.0924 17.4771 34.1882 17.3062 34.3594C17.1353 34.5303 17.0395 34.7625 17.0398 35.0043C17.0404 35.2462 17.1374 35.4777 17.3089 35.6481L19.3613 37.7007L19.3616 37.7004C19.7165 38.0556 20.2923 38.0556 20.6475 37.7004C21.0024 37.3452 21.0024 36.7697 20.6472 36.4145L18.5948 34.3621Z" fill="#0C0421"/>
<path d="M64.1654 15.2366C63.8089 14.889 63.2395 14.8926 62.8876 15.2448C62.5357 15.5967 62.5321 16.1661 62.8797 16.5222L64.8021 18.4446C64.9718 18.6188 65.2042 18.7176 65.4473 18.7192C65.6903 18.7207 65.924 18.6246 66.0959 18.4528C66.2677 18.2809 66.3638 18.0473 66.3623 17.8042C66.3604 17.5611 66.2616 17.3287 66.0877 17.159L64.1654 15.2366Z" fill="#0C0421"/>
<path d="M58.8787 9.94978C58.5235 9.59459 57.948 9.59459 57.5928 9.94948C57.2376 10.3047 57.2376 10.8805 57.5928 11.2354L59.5151 13.1577L59.5148 13.158C59.8703 13.5105 60.4441 13.5093 60.798 13.1553C61.152 12.8013 61.1532 12.2279 60.8011 11.8724L58.8787 9.94978Z" fill="#0C0421"/>
<path d="M66.1143 9.97784C65.7591 9.62295 65.1836 9.62295 64.8287 9.97784L62.906 11.8993C62.7354 12.0699 62.6396 12.3012 62.6396 12.5424C62.6396 12.7834 62.7354 13.0146 62.906 13.1852C63.2609 13.5404 63.8368 13.5404 64.1916 13.1852L66.114 11.2629H66.1143C66.4689 10.908 66.4689 10.3328 66.1143 9.97794L66.1143 9.97784Z" fill="#0C0421"/>
<path d="M59.542 15.263L57.62 17.1853C57.4482 17.3556 57.3512 17.5872 57.3506 17.829C57.35 18.0709 57.4461 18.303 57.617 18.4739C57.7879 18.6449 58.0201 18.7409 58.2616 18.7403C58.5035 18.7397 58.7353 18.6431 58.9056 18.4712L60.828 16.5489C61.1832 16.1937 61.1832 15.6182 60.828 15.263C60.4731 14.9078 59.8972 14.9078 59.542 15.263Z" fill="#0C0421"/>
<path d="M33.1259 41.4673C32.9744 41.6559 32.9041 41.8971 32.9307 42.1377C32.9574 42.3784 33.0789 42.5981 33.2684 42.7487C33.4578 42.8996 33.6993 42.9684 33.94 42.9403C34.1803 42.9124 34.3994 42.7896 34.5491 42.5993C34.7779 42.3117 35.0389 42.0417 35.3156 41.7562C36.2875 40.7515 37.3897 39.6126 37.3897 37.3656C37.3897 35.1187 36.2875 33.98 35.3156 32.9754C34.4427 32.0731 33.7529 31.3607 33.7529 29.8492C33.7529 28.3379 34.4424 27.6259 35.3156 26.7237C35.5486 26.4831 35.7899 26.2336 36.0214 25.9627H36.0211C36.1854 25.7806 36.269 25.5396 36.253 25.295C36.2369 25.0502 36.1227 24.8222 35.9363 24.6631C35.7499 24.5037 35.5068 24.4264 35.2629 24.4489C35.0186 24.4713 34.7937 24.5913 34.6391 24.782C34.4443 25.0099 34.233 25.2281 34.0094 25.4593C33.0368 26.4637 31.9346 27.6023 31.9346 29.8492C31.9346 32.0962 33.0368 33.2348 34.0087 34.2398C34.8816 35.142 35.5714 35.8545 35.5714 37.3656C35.5714 38.8768 34.8819 39.5896 34.0087 40.4918C33.7142 40.7961 33.4099 41.1107 33.1259 41.4673Z" fill="#0C0421"/>
<path d="M45.2183 35.2852C45.0668 35.4737 44.9965 35.715 45.0231 35.9556C45.0498 36.1962 45.1713 36.416 45.3608 36.5666C45.5502 36.7175 45.7917 36.7863 46.0323 36.7581C46.2727 36.7302 46.4918 36.6075 46.6415 36.4172C46.8703 36.1296 47.1313 35.8595 47.408 35.5741C48.3802 34.5694 49.4821 33.4305 49.4821 31.1835C49.4821 28.9365 48.3799 27.7979 47.408 26.7933C46.5351 25.891 45.8453 25.1785 45.8453 23.6671C45.8453 22.1557 46.5348 21.4438 47.408 20.5416C47.641 20.3009 47.8823 20.0515 48.1138 19.7806H48.1135C48.2778 19.5984 48.3614 19.3575 48.3454 19.1129C48.3293 18.868 48.2151 18.6401 48.0287 18.481C47.8423 18.3216 47.5992 18.2443 47.3553 18.2667C47.111 18.2892 46.8861 18.4092 46.7315 18.5998C46.5367 18.8277 46.3254 19.0459 46.1018 19.2772C45.1295 20.2815 44.0276 21.4205 44.0276 23.6671C44.0276 25.9141 45.1298 27.0527 46.1018 28.0577C46.9746 28.9599 47.6644 29.6724 47.6644 31.1835C47.6644 32.6946 46.9749 33.4074 46.1018 34.3097C45.8066 34.6139 45.5023 34.9285 45.2183 35.2852Z" fill="#0C0421"/>
<path d="M57.3107 41.4673C57.1592 41.6559 57.0889 41.8971 57.1156 42.1377C57.1422 42.3784 57.2638 42.5981 57.4532 42.7487C57.6426 42.8996 57.8841 42.9684 58.1248 42.9403C58.3651 42.9124 58.5842 42.7896 58.7339 42.5993C58.9628 42.3117 59.2237 42.0417 59.5004 41.7562C60.4723 40.7515 61.5746 39.6126 61.5746 37.3656C61.5746 35.1187 60.4723 33.98 59.5004 32.9754C58.6276 32.0731 57.9377 31.3607 57.9377 29.8492C57.9377 28.3379 58.6272 27.6259 59.5004 26.7237C59.7335 26.4831 59.9747 26.2336 60.2062 25.9627H60.2059C60.3702 25.7806 60.4539 25.5396 60.4378 25.295C60.4217 25.0502 60.3075 24.8222 60.1211 24.6631C59.9347 24.5037 59.6916 24.4264 59.4477 24.4489C59.2034 24.4713 58.9785 24.5913 58.8239 24.782C58.6291 25.0099 58.4178 25.2281 58.1942 25.4593C57.2216 26.4637 56.1194 27.6023 56.1194 29.8492C56.1194 32.0962 57.2216 33.2348 58.1936 34.2398C59.0664 35.142 59.7562 35.8545 59.7562 37.3656C59.7562 38.8768 59.0667 39.5896 58.1936 40.4918C57.899 40.7961 57.5947 41.1107 57.3107 41.4673Z" fill="#0C0421"/>
<path d="M94.6519 42.9228C90.7093 41.9708 87.4146 42.2973 84.8575 43.8932C84.2225 44.2906 83.6385 44.764 83.1182 45.3031C83.0227 43.4235 82.3429 41.5642 81.0816 39.7776C79.8884 38.1234 78.4018 36.702 76.6956 35.5843C76.271 35.3231 75.7148 35.4528 75.4496 35.8752C73.2936 39.3066 72.5535 42.5315 73.2494 45.4601C73.4082 46.1266 73.6409 46.773 73.9434 47.3877C72.1862 46.9079 70.2678 46.9498 68.2336 47.5298C67.2331 47.8202 66.2639 48.2093 65.3402 48.6909H9.19784C7.93102 48.6909 6.76057 49.3667 6.12716 50.4639C5.49375 51.561 5.49375 52.9126 6.12716 54.0097C6.76058 55.1069 7.93102 55.7827 9.19784 55.7827H11.3866V56.7395C11.3866 68.0259 19.3872 77.7372 30.298 80.1152V87.7771C30.2908 88.0159 30.3796 88.2478 30.5447 88.4205C30.7099 88.5933 30.9378 88.6927 31.1766 88.696H37.3146C37.8335 88.6969 38.2644 88.295 38.299 87.7771V80.695H56.8466V87.7771C56.8354 88.0141 56.9206 88.2453 57.0827 88.4184C57.2452 88.5917 57.4703 88.6917 57.7076 88.696H63.8453C64.3475 88.696 64.6657 88.2792 64.6657 87.777V80.1131C69.1493 79.139 73.2591 76.8997 76.5084 73.6605C79.7576 70.4213 82.0099 66.3183 82.9982 61.838C84.0472 62.7721 85.2622 63.5007 86.5805 63.9853C88.4095 64.6599 90.3418 65.012 92.2912 65.026C92.45 65.026 92.5458 65.0227 92.5655 65.0217H92.5658C93.0643 65.002 93.454 64.5841 93.4386 64.0853C93.3134 60.0269 92.1248 56.9332 89.9054 54.8906C89.2366 54.2766 88.4816 53.7641 87.6642 53.3693C89.6139 52.7289 91.3259 51.4393 92.7351 49.5185V49.5188C93.9283 47.8574 94.8057 45.991 95.3239 44.0126C95.437 43.5259 95.1363 43.0395 94.6508 42.9228L94.6519 42.9228ZM81.3514 53.4581C81.1192 53.8366 80.7243 54.0855 80.2828 54.1315C79.8415 54.1779 79.4036 54.0161 79.0981 53.6939C78.7925 53.3718 78.6544 52.9259 78.7241 52.4874C78.7938 52.0491 79.0635 51.6682 79.4536 51.4563C79.8439 51.2448 80.3103 51.2269 80.7159 51.4076C81.1214 51.5885 81.4196 51.9473 81.5229 52.3792C81.6123 52.7471 81.5508 53.1356 81.352 53.4581L81.3514 53.4581ZM76.889 59.7726C77.3475 59.9768 77.8846 59.7707 78.0891 59.3125L79.5506 56.0363V56.0366C79.5672 55.996 79.5812 55.9542 79.5918 55.9117C79.6309 55.9184 79.6709 55.9217 79.7103 55.9269C80.0903 57.1195 80.5864 59.5195 79.516 61.9391C78.5931 64.0258 76.6896 65.6978 73.851 66.9186V66.9189C73.4525 65.4848 73.2709 63.9988 73.3125 62.5108C73.4473 59.0713 75.0106 56.6058 77.9612 55.1729C77.9346 55.2117 77.9109 55.2529 77.8909 55.2957L76.4295 58.5719C76.3313 58.7922 76.3244 59.0422 76.4107 59.2674C76.4971 59.4929 76.6692 59.6744 76.8896 59.7726L76.889 59.7726ZM76.4989 37.6654C77.6827 38.5594 78.7265 39.6247 79.596 40.8264C81.5829 43.6391 81.8442 46.5462 80.3779 49.4756C80.3476 49.4735 80.3173 49.4729 80.287 49.4713C80.2833 49.4486 80.283 49.4262 80.2779 49.4035L79.4426 45.9148C79.3877 45.6787 79.2411 45.4745 79.035 45.3472C78.8292 45.2196 78.5807 45.1799 78.3452 45.2363C78.1097 45.2926 77.9064 45.4405 77.7803 45.6475C77.6542 45.8545 77.616 46.103 77.6742 46.3382L78.5095 49.8271C78.5149 49.8496 78.524 49.8702 78.531 49.892C78.5128 49.9026 78.4925 49.9114 78.4743 49.9223C77.45 49.1949 75.6234 47.5863 75.0194 45.0399C74.4933 42.8274 74.9912 40.3502 76.4995 37.6653L76.4989 37.6654ZM68.7319 49.2791C72.0493 48.3335 74.8821 49.0533 77.1638 51.417C77.1584 51.4294 77.1529 51.4416 77.1478 51.4534L73.5913 51.1142C73.0912 51.0664 72.6475 51.4331 72.6 51.9328C72.5521 52.4329 72.9188 52.8766 73.4186 52.9245L76.9396 53.2603C76.9439 53.2854 76.9487 53.3106 76.9536 53.3357C75.9322 54.0631 73.8065 55.2633 71.1941 54.9935C68.9314 54.7595 66.7571 53.4709 64.7205 51.1588H64.7208C65.9571 50.3362 67.3093 49.7028 68.7325 49.2791L68.7319 49.2791ZM9.19903 53.9643C8.73382 53.9679 8.28616 53.7858 7.95526 53.4582C7.62461 53.1308 7.43792 52.685 7.43671 52.2198C7.4361 51.7589 7.62309 51.3179 7.95435 50.9975C8.28651 50.6736 8.73533 50.4975 9.19905 50.5093H62.6282C62.4215 50.8351 62.444 51.2561 62.6837 51.5583C63.3692 52.4263 64.1305 53.2315 64.9591 53.9643L9.19903 53.9643ZM36.4819 86.8776H32.1178V80.4404C33.2003 80.6007 34.2929 80.6856 35.387 80.695H36.4819V86.8776ZM62.8486 86.8776H58.6662V80.6949H59.6367C60.7122 80.6931 61.786 80.608 62.8486 80.4404V86.8776ZM75.6253 72.0114C73.5596 74.1729 71.0787 75.8953 68.3311 77.0748C65.5838 78.2546 62.6264 78.8674 59.6368 78.8769H35.3867C34.0181 78.8729 32.6525 78.7444 31.3071 78.4923C26.2253 77.5495 21.6338 74.8585 18.3279 70.8856C15.0217 66.9127 13.21 61.9082 13.2063 56.7402V55.7834H67.6092C68.6696 56.3296 69.8219 56.6754 71.0078 56.8033C71.3194 56.8357 71.6322 56.8518 71.9455 56.8518C72.3953 56.8512 72.8444 56.8181 73.2896 56.7524C72.1916 58.3138 71.5827 60.2243 71.4961 62.4401L71.4958 62.4404C71.4364 64.4852 71.7537 66.5236 72.4319 68.4539C72.6101 68.92 73.1311 69.1549 73.5984 68.98C76.881 67.7559 79.2264 66.0103 80.5951 63.7842L80.5948 63.7839C79.5677 66.8606 77.8705 69.6707 75.6253 72.0118L75.6253 72.0114ZM88.6752 56.2274C90.3514 57.7704 91.3231 60.1067 91.5698 63.182C90.0699 63.0989 88.5913 62.7907 87.1832 62.267C84.0174 61.0429 82.2008 58.8017 81.772 55.6016L84.3874 57.8122V57.8125C84.7708 58.1365 85.3445 58.0883 85.6688 57.7049C85.9928 57.3212 85.9446 56.7475 85.5612 56.4235L82.9894 54.2502C83.0146 54.2038 83.0413 54.1593 83.064 54.1114C84.3181 54.1381 86.7396 54.446 88.6753 56.2277L88.6752 56.2274ZM83.2809 51.9178C83.2788 51.9093 83.2758 51.9011 83.2733 51.8927C83.2915 51.8836 83.3109 51.8757 83.3294 51.8654L86.4431 50.0833C86.8793 49.8339 87.0302 49.2784 86.7808 48.8426C86.5313 48.4068 85.9758 48.2555 85.54 48.505L82.4263 50.287C82.3999 50.304 82.3745 50.3222 82.3499 50.3416C82.3308 50.3234 82.3111 50.3067 82.2914 50.2894C82.649 49.0893 83.5883 46.8305 85.8222 45.4355C87.7537 44.2293 90.2649 43.912 93.2958 44.4891C92.5197 46.8333 89.8599 52.8714 83.2811 51.9179L83.2809 51.9178Z" fill="#0C0421"/>
</svg>
