<svg width="86" height="89" viewBox="0 0 86 89" fill="none" xmlns="http://www.w3.org/2000/svg">
<circle cx="32.5776" cy="32.696" r="32" fill="#CAD4FA"/>
<path fill-rule="evenodd" clip-rule="evenodd" d="M11.3241 70.1527V74.6758C11.3241 77.1684 13.3527 79.197 15.8472 79.197H79.1543C81.6469 79.197 83.6755 77.1684 83.6755 74.6758V70.1525H11.3238L11.3241 70.1527ZM79.1547 80.944H15.8476C12.3906 80.944 9.57764 78.1314 9.57764 74.6762L9.57793 69.2797C9.57793 68.7974 9.96908 68.4062 10.4511 68.4062H84.5495C85.0318 68.4062 85.4226 68.7974 85.4226 69.2797V74.6762C85.4226 78.1314 82.6113 80.9444 79.1547 80.944Z" fill="#0C0421"/>
<path fill-rule="evenodd" clip-rule="evenodd" d="M24.3477 88.6958H24.3439L19.1424 88.6884C18.6418 88.6867 18.2126 88.4666 17.9359 88.0699C17.2155 87.0383 17.8412 85.1826 17.9721 84.8203C18.0541 84.5982 18.0904 84.3855 18.0904 84.1306V80.0696C18.0904 79.5873 18.4816 79.1964 18.9636 79.1964C19.4459 79.1964 19.837 79.5876 19.837 80.0699V84.1306C19.837 84.5929 19.7659 85.004 19.6131 85.4206C19.3895 86.0318 19.3163 86.6433 19.3455 86.9416L24.1488 86.949C24.1706 86.6159 24.0632 85.9265 23.8411 85.3133C23.7685 85.1077 23.7738 84.8838 23.8576 84.682L25.9137 79.7347C26.0975 79.289 26.6087 79.0781 27.0544 79.2637C27.5001 79.4474 27.7113 79.9586 27.5258 80.4043L25.5954 85.0512C25.8264 85.8008 26.1521 87.2457 25.5624 88.0826C25.2842 88.479 24.8529 88.6958 24.347 88.6958L24.3477 88.6958Z" fill="#0C0421"/>
<path fill-rule="evenodd" clip-rule="evenodd" d="M70.6537 88.6958C70.1478 88.6958 69.7165 88.4793 69.438 88.0825C68.8486 87.2457 69.1743 85.8008 69.4053 85.0512L67.4731 80.4043C67.2893 79.9586 67.5003 79.4474 67.9442 79.2636C68.3899 79.0781 68.9012 79.289 69.0867 79.735L71.1428 84.682C71.2266 84.884 71.2319 85.1079 71.1572 85.3135C70.9372 85.9265 70.828 86.6162 70.8516 86.9492L75.6531 86.9419C75.6841 86.6436 75.6112 86.0321 75.3874 85.4209C75.2346 85.0041 75.1617 84.5931 75.1617 84.1309L75.162 80.0699C75.162 79.5875 75.5528 79.1967 76.0351 79.1967C76.5192 79.1967 76.9085 79.5879 76.9085 80.0702V84.1309C76.9085 84.3858 76.9448 84.5985 77.0265 84.8206C77.1596 85.1825 77.7834 87.0386 77.0649 88.0701C76.7864 88.4669 76.359 88.687 75.8586 88.6887L70.6551 88.6961H70.6533L70.6537 88.6958Z" fill="#0C0421"/>
<path fill-rule="evenodd" clip-rule="evenodd" d="M29.4964 53.5503C29.0144 53.5503 28.623 53.1591 28.623 52.6769L28.6233 36.1017C28.6233 35.6194 29.0144 35.2283 29.4964 35.2283C29.9787 35.2283 30.3698 35.6194 30.3698 36.1017V52.6769C30.3698 53.1589 29.9787 53.5503 29.4964 53.5503ZM13.6183 70.1526C13.136 70.1526 12.7449 69.7615 12.7449 69.2795V34.6627C12.7449 34.1807 13.136 33.7896 13.618 33.7896C14.1003 33.7896 14.4914 34.1807 14.4914 34.6627L14.4917 69.2795C14.4917 69.7615 14.1003 70.1526 13.6183 70.1526Z" fill="#0C0421"/>
<path fill-rule="evenodd" clip-rule="evenodd" d="M21.5565 26.0259C21.0745 26.0259 20.6831 25.6348 20.6831 25.1528L20.6834 21.4593C20.6834 20.9773 21.0746 20.5862 21.5565 20.5862C22.0388 20.5862 22.4299 20.9773 22.4299 21.4593V25.1528C22.4299 25.6351 22.0388 26.0262 21.5565 26.0259Z" fill="#0C0421"/>
<path fill-rule="evenodd" clip-rule="evenodd" d="M24.7314 29.9981C24.8314 29.9981 24.9314 30.0037 25.0317 30.0182C26.1781 30.1675 27.0423 31.1536 27.0423 32.3108V34.5268C27.0423 35.1692 27.5645 35.6914 28.2067 35.6914C28.8509 35.6914 29.373 35.1693 29.373 34.5271V27.3329C29.373 26.6907 28.8506 26.1686 28.2067 26.1686H14.9067C14.2645 26.1686 13.7424 26.6907 13.7424 27.3332V33.0881C13.7424 33.7303 14.2645 34.2524 14.9067 34.2524C15.5489 34.2524 16.073 33.7303 16.073 33.0881V32.3111C16.073 31.1539 16.9373 30.1698 18.0834 30.0185C19.2297 29.8675 20.3193 30.5952 20.6178 31.7123C20.7326 32.1401 21.1181 32.4365 21.5565 32.4365C21.9969 32.4365 22.3825 32.1401 22.4972 31.7123C22.7701 30.6935 23.6999 29.9985 24.7315 29.9985L24.7314 29.9981ZM28.2067 37.4377C26.602 37.4377 25.2954 36.1315 25.2954 34.5268V32.3105C25.2954 32.0229 25.0898 31.7866 24.804 31.7483C24.5185 31.7099 24.2583 31.8866 24.1836 32.163C23.8671 33.353 22.7863 34.1825 21.5565 34.1825C20.3284 34.1825 19.2477 33.3527 18.9311 32.163C18.8565 31.8863 18.5963 31.7117 18.3107 31.7483C18.0252 31.7863 17.8196 32.0229 17.8196 32.3105V33.0875C17.8196 34.694 16.5131 35.9988 14.9066 35.9988C13.3019 35.9988 11.9954 34.6944 11.9954 33.0875V27.3326C11.9954 25.7262 13.3016 24.4214 14.9063 24.4214H28.2063C29.8128 24.4214 31.119 25.7261 31.119 27.3326V34.5268C31.119 36.1315 29.8125 37.438 28.206 37.4377H28.2067Z" fill="#0C0421"/>
<path fill-rule="evenodd" clip-rule="evenodd" d="M31.2975 67.1932C31.1284 67.1932 30.9553 67.144 30.8042 67.0386C26.0703 63.7873 24.9673 59.748 24.8782 56.9338C24.78 53.8989 25.8024 51.6447 25.8461 51.55C26.0009 51.2134 26.3519 51.0113 26.7195 51.0461C26.8959 51.0623 31.0714 51.4809 34.2502 54.834C34.5833 55.1851 34.5667 55.7364 34.2175 56.0694C33.8682 56.4007 33.3151 56.3859 32.9821 56.0367C30.9499 53.8897 28.3735 53.1364 27.1962 52.8927C26.5322 54.8484 25.1293 61.022 31.7939 65.5999C32.1907 65.8727 32.2925 66.4166 32.0196 66.8152C31.8488 67.0607 31.5756 67.1937 31.2972 67.1937L31.2975 67.1932Z" fill="#0C0421"/>
<path fill-rule="evenodd" clip-rule="evenodd" d="M31.9289 69.8777C28.2465 69.8777 25.2005 68.9243 22.8465 67.0305C18.8438 63.8136 18.3671 59.0816 18.3488 58.8815C18.3143 58.5139 18.516 58.1647 18.8526 58.0101C18.9836 57.9481 22.1258 56.531 26.0049 57.226C26.4798 57.3116 26.7946 57.7647 26.709 58.2393C26.6255 58.7142 26.1704 59.0307 25.6957 58.9452C23.2869 58.5122 21.1889 59.0343 20.1957 59.3656C20.4633 60.6481 21.3382 63.5886 23.9582 65.6845C26.5509 67.7603 30.186 68.5193 34.7624 67.9441C35.2412 67.8839 35.6777 68.2243 35.7376 68.7028C35.7978 69.1813 35.4592 69.6178 34.9807 69.678C33.92 69.8108 32.9028 69.878 31.9297 69.878L31.9289 69.8777Z" fill="#0C0421"/>
<path fill-rule="evenodd" clip-rule="evenodd" d="M37.1743 52.028C34.738 54.9555 30.3896 61.2818 31.6669 65.0712C32.2274 66.7341 33.8902 67.8367 36.6067 68.35C36.8053 68.3881 36.987 68.4064 37.1655 68.4064C37.3601 68.4064 37.5421 68.3881 37.7404 68.35C40.4587 67.8367 42.1197 66.7326 42.6802 65.0712C43.9593 61.2742 39.6109 54.9535 37.1746 52.028H37.1743ZM37.1873 70.1535H37.1599C36.8743 70.1517 36.5867 70.1243 36.2811 70.0662C32.8991 69.4276 30.7882 67.9338 30.0115 65.6287C27.9976 59.6534 36.1758 50.4929 36.5251 50.107C36.6906 49.9232 36.9272 49.8176 37.1746 49.8176C37.4204 49.8176 37.657 49.9232 37.8224 50.107C38.172 50.4926 46.3505 59.6538 44.336 65.6287C43.5594 67.934 41.4487 69.4276 38.0664 70.0662C37.7608 70.1243 37.4732 70.1517 37.1876 70.1535H37.1873Z" fill="#0C0421"/>
<path fill-rule="evenodd" clip-rule="evenodd" d="M43.0493 67.1932C42.7709 67.1932 42.498 67.0605 42.3287 66.8148C42.054 66.4162 42.1558 65.8723 42.5526 65.5994C45.8712 63.3197 47.6107 60.3867 47.7234 56.8787C47.7801 55.123 47.4034 53.6693 47.145 52.8923C45.9679 53.138 43.3951 53.8912 41.3647 56.0363C41.0337 56.3855 40.4803 56.4003 40.1293 56.069C39.78 55.736 39.7653 55.1849 40.0966 54.8336C43.2754 51.4806 47.4526 51.062 47.6273 51.0457C47.9969 51.013 48.3459 51.213 48.5004 51.5496C48.5441 51.644 49.5665 53.8985 49.4701 56.9334C49.3792 59.7481 48.2765 63.7871 43.5423 67.0383C43.3913 67.1421 43.2184 67.1928 43.0494 67.1928L43.0493 67.1932Z" fill="#0C0421"/>
<path fill-rule="evenodd" clip-rule="evenodd" d="M42.4181 69.8777C41.4449 69.8777 40.4275 69.8105 39.367 69.6777C38.8886 69.6176 38.5503 69.181 38.6101 68.7025C38.6703 68.224 39.1069 67.8836 39.5854 67.9438C44.1615 68.5187 47.7963 67.76 50.3895 65.6842C53.0078 63.5901 53.8828 60.6535 54.1521 59.3671C53.1532 59.0379 51.0461 58.5155 48.652 58.945C48.1774 59.0305 47.724 58.714 47.6385 58.239C47.5532 57.7641 47.8677 57.3113 48.3426 57.2258C52.2235 56.5308 55.3639 57.9479 55.4948 58.0099C55.8314 58.1644 56.0335 58.5137 55.9987 58.8812C55.9807 59.0812 55.5037 63.8137 51.5028 67.0302C49.1468 68.924 46.101 69.8777 42.4181 69.8774L42.4181 69.8777Z" fill="#0C0421"/>
<path fill-rule="evenodd" clip-rule="evenodd" d="M74.6478 53.6274C74.1658 53.6274 73.7744 53.2362 73.7744 52.7543V40.5606C73.7744 39.3435 73.1741 38.1954 72.1679 37.4912C71.8697 37.2821 71.5803 37.0927 71.2982 36.9071C69.9428 36.0192 68.662 35.1806 68.3088 33.2463C68.2215 32.7714 68.5363 32.3166 69.0112 32.231C69.4861 32.1437 69.941 32.4584 70.0265 32.9316C70.2377 34.0797 70.8979 34.5581 72.2555 35.4461C72.5484 35.639 72.8505 35.8354 73.1705 36.0593C74.6425 37.0909 75.5213 38.7738 75.5213 40.5605L75.5216 52.7542C75.5216 53.2365 75.1304 53.6276 74.6481 53.6276L74.6478 53.6274ZM52.6256 58.9637C52.1433 58.9637 51.7522 58.5725 51.7522 58.0906V40.5601C51.7522 38.7734 52.631 37.0905 54.1047 36.059C54.423 35.8351 54.725 35.6386 55.018 35.4457C56.3755 34.5578 57.0357 34.0793 57.2469 32.9312C57.3325 32.4581 57.7873 32.1433 58.2623 32.2306C58.7372 32.3162 59.0519 32.771 58.9646 33.2459C58.6118 35.1798 57.3307 36.0188 55.9752 36.9068C55.6953 37.0923 55.4038 37.2817 55.1056 37.4908C54.0997 38.195 53.4991 39.343 53.4991 40.5602L53.4994 58.0906C53.4994 58.5726 53.108 58.9641 52.626 58.9638L52.6256 58.9637Z" fill="#0C0421"/>
<path fill-rule="evenodd" clip-rule="evenodd" d="M74.6478 45.603H52.6256C52.1433 45.603 51.7522 45.2118 51.7522 44.7299C51.7522 44.2476 52.1433 43.8564 52.6256 43.8564H74.6478C75.1301 43.8564 75.5209 44.2476 75.5209 44.7299C75.5212 45.2119 75.1297 45.603 74.6478 45.603Z" fill="#0C0421"/>
<path fill-rule="evenodd" clip-rule="evenodd" d="M69.1675 33.9627H58.1051C57.6231 33.9627 57.2317 33.5716 57.2317 33.0893L57.232 28.5099C57.232 28.0276 57.6231 27.6365 58.1051 27.6365C58.5874 27.6365 58.9785 28.0276 58.9785 28.5099V32.2161H68.2943V28.5099C68.2943 28.0276 68.6854 27.6365 69.1674 27.6365C69.6494 27.6365 70.0405 28.0276 70.0405 28.5099V33.0893C70.0405 33.5716 69.6494 33.9627 69.1674 33.9627H69.1675Z" fill="#0C0421"/>
<path fill-rule="evenodd" clip-rule="evenodd" d="M58.0598 27.6365H69.2128V24.7764H58.0598V27.6365ZM69.3533 29.3832H57.9216C57.0336 29.3832 56.313 28.661 56.313 27.7749L56.3133 24.6383C56.3133 23.7504 57.0336 23.03 57.9216 23.03H69.3533C70.2394 23.03 70.9597 23.7507 70.9597 24.6386V27.7752C70.9597 28.661 70.2391 29.3835 69.3533 29.3835L69.3533 29.3832Z" fill="#0C0421"/>
<path fill-rule="evenodd" clip-rule="evenodd" d="M66.517 24.7762C66.0346 24.7762 65.6435 24.3851 65.6435 23.9031V18.1609C65.6435 17.0547 64.7429 16.1541 63.6364 16.1541C62.5303 16.1541 61.6297 17.0547 61.6297 18.1609V23.9031C61.6297 24.3851 61.2385 24.7765 60.7562 24.7765C60.2742 24.7765 59.8828 24.3854 59.8828 23.9031L59.8831 18.1609C59.8831 16.0904 61.5678 14.4075 63.6365 14.4075C65.7053 14.4075 67.3899 16.0904 67.3899 18.1609V23.9031C67.3899 24.3851 66.9988 24.7765 66.5168 24.7762H66.517Z" fill="#0C0421"/>
<path fill-rule="evenodd" clip-rule="evenodd" d="M80.0622 61.8912C79.5802 61.8912 79.1888 61.5 79.1888 61.0177C79.1888 60.534 79.58 60.1446 80.062 60.1446C80.7189 60.1446 81.2537 59.6098 81.2537 58.9511C81.2537 58.2941 80.7189 57.7593 80.062 57.7593H60.3702C59.7133 57.7593 59.1785 58.2941 59.1785 58.9511C59.1785 59.6095 59.7133 60.1446 60.3702 60.1446H62.4372C62.9192 60.1446 63.3103 60.534 63.3103 61.018C63.3103 61.5003 62.9192 61.8915 62.4372 61.8915H60.3705C58.7493 61.8915 57.4319 60.5726 57.4319 58.9513C57.4319 57.3321 58.7493 56.0129 60.3702 56.0129H80.062C81.6832 56.0129 83.0021 57.3321 83.0021 58.9513C83.0024 60.5726 81.6829 61.8915 80.062 61.8915L80.0622 61.8912Z" fill="#0C0421"/>
<path fill-rule="evenodd" clip-rule="evenodd" d="M62.4414 70.1527C59.6812 70.1527 57.4358 67.9076 57.4358 65.1474C57.4358 62.389 59.6809 60.1438 62.4411 60.1438H80.0659C80.5482 60.1438 80.9391 60.5332 80.9391 61.0172C80.9393 61.4995 80.5479 61.8906 80.0656 61.8906H62.4408C60.6431 61.8906 59.1821 63.3517 59.1821 65.1476C59.1821 66.9453 60.6432 68.4063 62.4408 68.4063C62.9231 68.4063 63.3139 68.7975 63.3139 69.2797C63.3139 69.7617 62.9228 70.1528 62.4408 70.1528L62.4414 70.1527Z" fill="#0C0421"/>
<path fill-rule="evenodd" clip-rule="evenodd" d="M80.0623 70.1525C79.5802 70.1525 79.1888 69.7614 79.1888 69.2794C79.1888 68.7971 79.58 68.406 80.062 68.406C80.7189 68.406 81.2537 67.8712 81.2537 67.2143C81.2537 66.5556 80.7189 66.0207 80.062 66.0207H63.5563C63.0743 66.0207 62.6829 65.6296 62.6829 65.1476C62.6829 64.6653 63.074 64.2742 63.556 64.2742H80.0617C81.6829 64.2742 83.0018 65.5934 83.0018 67.2146C83.0021 68.8338 81.6826 70.153 80.0617 70.153L80.0623 70.1525Z" fill="#0C0421"/>
<path fill-rule="evenodd" clip-rule="evenodd" d="M80.0624 66.0211C79.5804 66.0211 79.189 65.6299 79.189 65.148C79.189 64.6657 79.5801 64.2745 80.0621 64.2745C80.719 64.2745 81.2538 63.7397 81.2538 63.0828C81.2538 62.4259 80.719 61.8911 80.0621 61.8911C79.5801 61.8911 79.189 61.4999 79.189 61.0177C79.189 60.5339 79.5801 60.1445 80.0621 60.1445C81.6834 60.1445 83.0004 61.4616 83.0004 63.0829C83.0007 64.7038 81.6831 66.0212 80.0621 66.0212L80.0624 66.0211Z" fill="#0C0421"/>
<path fill-rule="evenodd" clip-rule="evenodd" d="M80.0622 57.7596C79.5802 57.7596 79.1888 57.3685 79.1888 56.8862C79.1888 56.4039 79.58 56.0128 80.062 56.0128C80.7189 56.0128 81.2537 55.478 81.2537 54.821C81.2537 54.1623 80.7189 53.6275 80.062 53.6275H60.3702C59.7133 53.6275 59.1785 54.1623 59.1785 54.821C59.1785 55.4777 59.7133 56.0128 60.3702 56.0128H62.4372C62.9192 56.0128 63.3103 56.4039 63.3103 56.8862C63.3103 57.3682 62.9192 57.7596 62.4372 57.7596H60.3705C58.7493 57.7596 57.4319 56.4404 57.4319 54.8213C57.4319 53.2 58.7493 51.8811 60.3702 51.8811H80.062C81.6832 51.8811 83.0021 53.2003 83.0021 54.8216C83.0024 56.4407 81.6829 57.7599 80.062 57.7599L80.0622 57.7596Z" fill="#0C0421"/>
<path d="M22.237 9.02068C27.7628 14.9178 27.4282 18.939 25.3111 20.9312C24.3179 21.8657 22.9323 22.3329 21.5577 22.3329C20.1831 22.3329 18.7975 21.8656 17.8043 20.9312C14.0928 17.4391 18.3813 11.6713 20.9217 8.97084C21.2857 8.58382 21.9046 8.61037 22.237 9.0204V9.02068ZM24.117 19.6617C25.5444 18.3187 25.5987 15.4296 21.5577 10.861C17.5167 15.4295 17.571 18.3186 18.9984 19.6617C19.6529 20.2777 20.5998 20.5856 21.5577 20.5856C22.5156 20.5856 23.4625 20.2776 24.117 19.6617Z" fill="#0C0421"/>
</svg>
