<svg width="84" height="85" viewBox="0 0 84 85" fill="none" xmlns="http://www.w3.org/2000/svg">
<circle cx="32.4329" cy="32.696" r="32" fill="#CAD4FA"/>
<path d="M82.9146 64.0666H80.3176C81.1725 63.2231 81.6525 62.0714 81.6494 60.8703C81.6489 59.7286 81.2158 58.6296 80.4375 57.7942C79.659 56.959 78.5933 56.4496 77.4544 56.3689L56.7717 54.5711L60.5141 49.9231L73.1926 49.6301C74.7152 49.611 76.1119 48.7811 76.8566 47.4533C77.6015 46.1251 77.581 44.5007 76.8033 43.1916C76.0256 41.8826 74.6087 41.0877 73.086 41.1068H71.6343L60.2614 23.6204C59.2431 22.0431 57.4907 21.0942 55.6134 21.1033H43.6275C42.158 21.1033 40.7489 21.6871 39.7098 22.7259C38.6711 23.765 38.0873 25.1742 38.0873 26.6435V50.9486H28.4715C26.5452 50.9391 24.6945 51.6971 23.3284 53.0553C21.9622 54.4131 21.1931 56.2593 21.1912 58.1856C21.1889 60.112 21.9541 61.9598 23.3176 63.3207C23.6228 63.624 23.9574 63.8962 24.3164 64.1331H20.5341V62.9079C20.5314 61.9321 20.1982 60.9862 19.5886 60.2244C18.9791 59.4625 18.1295 58.9296 17.1781 58.7128C18.9654 57.5556 20.1635 55.68 20.4617 53.5716C20.76 51.4632 20.1293 49.3291 18.7332 47.7216C17.3368 46.1137 15.3122 45.1906 13.1827 45.1906C11.0532 45.1906 9.02869 46.1137 7.63221 47.7216C6.23608 49.3291 5.60543 51.4633 5.90367 53.5716C6.20193 55.68 7.39995 57.5556 9.18729 58.7128C8.23587 58.9295 7.38638 59.4625 6.77675 60.2244C6.16711 60.9862 5.83399 61.9321 5.83122 62.9079V64.1331H5.08543C4.72502 64.1331 4.43286 64.4253 4.43286 64.7857V71.9773C4.43286 72.3377 4.72502 72.6298 5.08543 72.6298H8.17515V84.0433C8.17515 84.2187 8.24562 84.3868 8.37103 84.5094C8.49616 84.6324 8.66568 84.6995 8.84103 84.6959H13.449C13.8094 84.6959 14.1015 84.4037 14.1015 84.0433V72.5638H73.8985V83.9773C73.8985 84.3377 74.1907 84.6298 74.5511 84.6298H79.159C79.3344 84.6334 79.5039 84.5663 79.6291 84.4434C79.7545 84.3208 79.8249 84.1526 79.8249 83.9773V72.5638H82.9146C83.2751 72.5638 83.5672 72.2716 83.5672 71.9112V64.7196C83.5672 64.3592 83.2751 64.0671 82.9146 64.0671L82.9146 64.0666ZM43.6404 22.4087H55.6264C57.063 22.4054 58.4028 23.1328 59.1822 24.3398L70.0892 41.1066H64.3626L57.504 32.0371C57.3345 31.811 57.039 31.7197 56.7715 31.8107C56.5021 31.8928 56.3182 32.1417 56.3187 32.4233V38.4563L50.0594 36.099L47.0096 28.428C46.8773 28.0898 46.4955 27.9227 46.1573 28.0551C45.819 28.1874 45.652 28.5692 45.7844 28.9074L48.9407 36.8981C49.0023 37.0723 49.1394 37.2094 49.3136 37.271L56.9051 40.1342C57.7654 40.5099 58.3648 41.3106 58.4821 42.2421C58.5997 43.1737 58.218 44.0982 57.4777 44.6756C56.7405 45.1781 55.8005 45.2783 54.974 44.942L52.923 44.0763H52.8298L45.6119 41.0532C44.6109 40.6431 43.8088 39.8599 43.3746 38.8691L40.0051 31.2513C39.6087 30.3629 39.4042 29.4007 39.4058 28.428V26.6434C39.4058 25.5203 39.852 24.443 40.6463 23.6489C41.4404 22.8545 42.5178 22.4084 43.6409 22.4084L43.6404 22.4087ZM59.6217 41.0535C59.2618 40.1069 58.5374 39.3442 57.6107 38.936V34.3814L62.6981 41.1069L59.6217 41.0535ZM39.3922 33.0629L42.1757 39.3489C42.7436 40.6473 43.7943 41.6742 45.1056 42.2121L51.5114 44.8757L45.8114 50.9352H39.4056L39.3922 33.0629ZM22.5188 58.14C22.5252 56.5821 23.1533 55.0911 24.2634 53.9982C25.3718 52.864 26.8995 52.2375 28.4852 52.2669L46.0916 52.3468C46.2725 52.351 46.4467 52.2786 46.571 52.1471L52.8037 45.4882L54.4685 46.1807C54.9484 46.3855 55.465 46.4895 55.9867 46.487C56.7907 46.4837 57.5754 46.2376 58.2374 45.7812C59.3625 45.0415 60.0231 43.771 59.982 42.4251H73.1534C73.9059 42.4204 74.6314 42.7067 75.1777 43.2242C75.7484 43.7602 76.0819 44.5018 76.1044 45.2845C76.1269 46.067 75.8367 46.8264 75.2979 47.3946C74.7591 47.9628 74.0161 48.2927 73.2334 48.3115L60.1685 48.6711C59.9771 48.6747 59.797 48.7624 59.6758 48.9108L54.9879 54.7573C54.8389 54.9462 54.8031 55.2007 54.8947 55.4232C54.9904 55.6457 55.1996 55.7989 55.4407 55.8227L77.3614 57.7271C78.174 57.7748 78.937 58.1336 79.4922 58.7285C80.0477 59.3236 80.3529 60.1096 80.3445 60.9234C80.3409 61.7724 80.0013 62.5853 79.3998 63.1843C78.7983 63.7834 77.9839 64.1196 77.1349 64.1196H51.8312C52.5737 63.3361 52.9868 62.2971 52.9851 61.2178C52.9832 60.1382 52.5667 59.1005 51.8215 58.3195C51.0763 57.5385 50.0594 57.0737 48.9812 57.0213L38.7667 56.6617L37.7412 56.5818L31.3487 55.7961C31.1761 55.7698 31.0005 55.8164 30.864 55.9251C30.7272 56.0339 30.6423 56.1948 30.6295 56.3688C30.5824 56.7253 30.8323 57.053 31.1889 57.1012L37.5814 57.8869C37.9676 57.8869 38.3405 57.9535 38.7267 57.9668L48.915 58.2998C49.9035 58.3808 50.7822 58.9612 51.245 59.8382C51.7081 60.7156 51.6912 61.7685 51.2004 62.6303C50.7093 63.4921 49.8123 64.0436 48.8218 64.093H28.4453C26.8724 64.0966 25.363 63.4732 24.2507 62.3612C23.1387 61.2489 22.5152 59.7395 22.5189 58.1666L22.5188 58.14ZM7.16328 52.4933C7.16328 50.8924 7.79948 49.3573 8.93174 48.2258C10.0643 47.0943 11.5997 46.4592 13.2007 46.4604C14.8016 46.4615 16.3362 47.0988 17.4667 48.2322C18.5976 49.3653 19.2314 50.9013 19.2291 52.5022C19.2266 54.1031 18.5882 55.6371 17.4542 56.7672C16.3203 57.8969 14.7837 58.5298 13.1828 58.5263C11.585 58.5226 10.054 57.8856 8.92556 56.7545C7.79685 55.6236 7.16321 54.0912 7.16321 52.4934L7.16328 52.4933ZM7.16328 62.8413C7.16328 62.0453 7.47847 61.2818 8.04005 60.7178C8.60161 60.1537 9.3638 59.8352 10.1598 59.8315H16.2193C17.0154 59.8351 17.7776 60.1537 18.3391 60.7178C18.9007 61.2818 19.2159 62.0453 19.2159 62.8413V64.0666H7.22991L7.16328 62.8413ZM12.7966 83.2974H9.49385V72.5636H12.7966V83.2974ZM78.506 83.2974H75.2032V72.5636H78.506V83.2974ZM82.2616 71.3114H5.73612V65.3717H82.2616V71.3114Z" fill="#0C0421"/>
<path d="M48.5129 19.3723C50.4589 19.3723 52.3257 18.5993 53.7019 17.2231C55.078 15.8469 55.851 13.9802 55.851 12.0342C55.851 10.0881 55.078 8.22137 53.7019 6.84521C52.3257 5.46904 50.459 4.69604 48.5129 4.69604C46.5668 4.69604 44.7001 5.46904 43.324 6.84521C41.9478 8.22137 41.1748 10.0881 41.1748 12.0342C41.1748 13.9802 41.9478 15.8469 43.324 17.2231C44.7001 18.5993 46.5668 19.3723 48.5129 19.3723ZM48.5129 6.05453C50.113 6.05453 51.6476 6.69017 52.7788 7.82163C53.9103 8.95282 54.5459 10.4874 54.5459 12.0875C54.5459 13.6876 53.9102 15.2222 52.7788 16.3534C51.6476 17.4848 50.113 18.1205 48.5129 18.1205C46.9128 18.1205 45.3782 17.4848 44.247 16.3534C43.1156 15.2222 42.4799 13.6876 42.4799 12.0875C42.4835 10.4885 43.1203 8.95616 44.251 7.82554C45.3816 6.69491 46.9139 6.05815 48.5129 6.05453Z" fill="#0C0421"/>
</svg>
